<svg xmlns="http://www.w3.org/2000/svg" width="107" height="107" viewBox="0 0 107 107">
  <g id="Group_123" data-name="Group 123" transform="translate(-1138 -1504)">
    <g id="Group_120" data-name="Group 120">
      <rect id="Rectangle_10" data-name="Rectangle 10" width="25.13" height="10.795" rx="1" transform="translate(1148.36 1591.052) rotate(-45)" fill="#d19354"/>
      <rect id="Rectangle_11" data-name="Rectangle 11" width="7.524" height="18.811" rx="2" transform="translate(1165.47 1568.396) rotate(-45)" fill="#d19354"/>
      <path id="Subtraction_5" data-name="Subtraction 5" d="M-797.254-7863.862h0l-6.2-6.2,4.647-4.647,6.2,6.2-4.647,4.646Zm15.745-15.745h0l-6.2-6.2,16.039-16.04,6.2,6.2-16.038,16.037Z" transform="translate(1980.09 9434.378)" fill="#d19354"/>
      <path id="Path_7" data-name="Path 7" d="M0,10.714l6.294,3.08V0L0,3.061Z" transform="translate(1208.763 1528.65) rotate(-45)" fill="#d19354"/>
      <path id="Path_8" data-name="Path 8" d="M0,13.779l14.892-1.761L14.8,1.493,0,0Z" transform="translate(1215.31 1522.103) rotate(-45)" fill="#d19354"/>
      <path id="Subtraction_9" data-name="Subtraction 9" d="M-779.828-7859.078-821-7900.25a15.544,15.544,0,0,0,5.857-3.7,15.7,15.7,0,0,0,2.931-4.051l40.086,40.086a14.578,14.578,0,0,0-4.093,2.886,14.6,14.6,0,0,0-3.609,5.949Z" transform="translate(1988.115 9442.922)" fill="#d19354"/>
      <path id="Subtraction_6" data-name="Subtraction 6" d="M15.327,31.3A15.656,15.656,0,0,1,0,18.829l9.31,2.494a4,4,0,0,0,4.9-2.829l.164-.613a4,4,0,0,0-2.829-4.9L.7,10.077A15.653,15.653,0,1,1,15.327,31.3Z" transform="translate(1160.133 1504) rotate(45)" fill="#d19354"/>
      <path id="Subtraction_8" data-name="Subtraction 8" d="M14.568,29.138A14.569,14.569,0,0,1,4.267,4.267a14.569,14.569,0,0,1,24.841,9.368l-9.527-2.553a3.995,3.995,0,0,0-4.9,2.828l-.01.037a4.006,4.006,0,0,0,2.829,4.9L27.388,21.5A14.567,14.567,0,0,1,14.568,29.138Z" transform="translate(1224.198 1569.592) rotate(45)" fill="#d19354"/>
    </g>
    <rect id="Rectangle_32" data-name="Rectangle 32" width="107" height="107" transform="translate(1138 1504)" fill="none"/>
  </g>
</svg>
