<svg xmlns="http://www.w3.org/2000/svg" width="107" height="107" viewBox="0 0 107 107">
  <g id="Group_124" data-name="Group 124" transform="translate(-1138 -1364)">
    <g id="Group_121" data-name="Group 121" transform="translate(2.457 6)">
      <path id="Exclusion_1" data-name="Exclusion 1" d="M-745.661-7821.5H-815.42a5.587,5.587,0,0,1-5.581-5.581v-75.339A5.587,5.587,0,0,1-815.42-7908h69.758a5.587,5.587,0,0,1,5.581,5.581v75.339A5.587,5.587,0,0,1-745.661-7821.5Zm-56.382-21.5a2.5,2.5,0,0,0-2.5,2.5,2.5,2.5,0,0,0,2.5,2.5h45a2.5,2.5,0,0,0,2.5-2.5,2.5,2.5,0,0,0-2.5-2.5Zm0-16a2.5,2.5,0,0,0-2.5,2.5,2.5,2.5,0,0,0,2.5,2.5h28a2.5,2.5,0,0,0,2.5-2.5,2.5,2.5,0,0,0-2.5-2.5Zm0-16a2.5,2.5,0,0,0-2.5,2.5,2.5,2.5,0,0,0,2.5,2.5h48a2.5,2.5,0,0,0,2.5-2.5,2.5,2.5,0,0,0-2.5-2.5Zm0-16a2.5,2.5,0,0,0-2.5,2.5,2.5,2.5,0,0,0,2.5,2.5h38a2.5,2.5,0,0,0,2.5-2.5,2.5,2.5,0,0,0-2.5-2.5Z" transform="translate(1964.544 9271)" fill="#d19354"/>
      <g id="Group_19" data-name="Group 19" transform="translate(1143.544 1363)">
        <g id="Subtraction_4" data-name="Subtraction 4" transform="translate(1964.544 9271)" fill="#d19354">
          <path d="M -1878.786987304688 -9177.4912109375 L -1950.80810546875 -9177.4912109375 C -1952.325439453125 -9177.4912109375 -1953.6357421875 -9178.39453125 -1954.229736328125 -9179.69140625 L -1886.760620117188 -9179.69140625 C -1882.479858398438 -9179.69140625 -1878.997314453125 -9183.173828125 -1878.997314453125 -9187.455078125 L -1878.997314453125 -9262.7978515625 L -1878.786987304688 -9262.7978515625 C -1876.7119140625 -9262.7978515625 -1875.023681640625 -9261.1103515625 -1875.023681640625 -9259.0361328125 L -1875.023681640625 -9181.251953125 C -1875.023681640625 -9179.1787109375 -1876.7119140625 -9177.4912109375 -1878.786987304688 -9177.4912109375 Z" stroke="none"/>
          <path d="M -1878.786987304688 -9179.4912109375 C -1877.814697265625 -9179.4912109375 -1877.023681640625 -9180.28125 -1877.023681640625 -9181.251953125 L -1877.023681640625 -9186.7333984375 C -1877.24267578125 -9183.748046875 -1878.810302734375 -9181.130859375 -1881.118041992188 -9179.4912109375 L -1878.786987304688 -9179.4912109375 M -1878.786987304688 -9175.4912109375 L -1950.80810546875 -9175.4912109375 C -1953.984619140625 -9175.4912109375 -1956.568969726563 -9178.0751953125 -1956.568969726563 -9181.251953125 L -1956.568969726563 -9181.69140625 L -1886.760620117188 -9181.69140625 C -1883.582763671875 -9181.69140625 -1880.997314453125 -9184.27734375 -1880.997314453125 -9187.455078125 L -1880.997314453125 -9264.7978515625 L -1878.786987304688 -9264.7978515625 C -1875.609130859375 -9264.7978515625 -1873.023681640625 -9262.212890625 -1873.023681640625 -9259.0361328125 L -1873.023681640625 -9181.251953125 C -1873.023681640625 -9178.0751953125 -1875.609130859375 -9175.4912109375 -1878.786987304688 -9175.4912109375 Z" stroke="none" fill="#d19354"/>
        </g>
      </g>
    </g>
    <rect id="Rectangle_33" data-name="Rectangle 33" width="107" height="107" transform="translate(1138 1364)" fill="none"/>
  </g>
</svg>
