<svg xmlns="http://www.w3.org/2000/svg" viewBox="0 0 354.92 34.15"><defs><style>.cls-1{fill:#6e6964;}</style></defs><title>Asset 2</title><g id="Layer_2" data-name="Layer 2"><g id="Layer_1-2" data-name="Layer 1"><path class="cls-1" d="M2.87,23.38H2.8V34H0V8.41H2.8v3.07h.07A6.64,6.64,0,0,1,8.92,8a6.39,6.39,0,0,1,5.28,2.35,9.68,9.68,0,0,1,1.9,6.3,10.82,10.82,0,0,1-2.14,7,7.1,7.1,0,0,1-5.84,2.64A5.86,5.86,0,0,1,2.87,23.38ZM2.8,16.32v2.44a5.22,5.22,0,0,0,1.41,3.69A4.68,4.68,0,0,0,7.79,24a4.68,4.68,0,0,0,4-1.95,8.88,8.88,0,0,0,1.45-5.42A7.08,7.08,0,0,0,11.88,12a4.48,4.48,0,0,0-3.66-1.65,4.94,4.94,0,0,0-3.93,1.7A6.23,6.23,0,0,0,2.8,16.32Z"/><path class="cls-1" d="M29.7,11.25a3.39,3.39,0,0,0-2.12-.57,3.61,3.61,0,0,0-3,1.69A7.87,7.87,0,0,0,23.38,17v8.92h-2.8V8.41h2.8V12h.07a6.13,6.13,0,0,1,1.83-2.88A4.2,4.2,0,0,1,28,8.1a4.54,4.54,0,0,1,1.67.24Z"/><path class="cls-1" d="M40.06,26.32a8.15,8.15,0,0,1-6.2-2.45,9.12,9.12,0,0,1-2.31-6.51A9.43,9.43,0,0,1,34,10.48,8.61,8.61,0,0,1,40.47,8a7.84,7.84,0,0,1,6.11,2.41,9.55,9.55,0,0,1,2.19,6.68,9.4,9.4,0,0,1-2.36,6.71A8.31,8.31,0,0,1,40.06,26.32Zm.2-16A5.34,5.34,0,0,0,36,12.19a7.56,7.56,0,0,0-1.57,5.07A7.16,7.16,0,0,0,36,22.17,5.42,5.42,0,0,0,40.26,24a5.12,5.12,0,0,0,4.18-1.76,7.6,7.6,0,0,0,1.46-5,7.75,7.75,0,0,0-1.46-5.06A5.1,5.1,0,0,0,40.26,10.36Z"/><path class="cls-1" d="M68.19,25.91h-2.8v-3h-.07A7.06,7.06,0,0,1,54,24a9.62,9.62,0,0,1-2-6.4,10.49,10.49,0,0,1,2.18-7A7.22,7.22,0,0,1,60.07,8a5.62,5.62,0,0,1,5.25,2.83h.07V0h2.8ZM65.39,18V15.42A5,5,0,0,0,64,11.83a4.68,4.68,0,0,0-3.55-1.47,4.81,4.81,0,0,0-4,1.88,8.21,8.21,0,0,0-1.47,5.19,7.42,7.42,0,0,0,1.41,4.78A4.6,4.6,0,0,0,60.12,24a4.77,4.77,0,0,0,3.8-1.69A6.28,6.28,0,0,0,65.39,18Z"/><path class="cls-1" d="M87.93,17.86H75.57a6.57,6.57,0,0,0,1.57,4.51A5.43,5.43,0,0,0,81.28,24,8.58,8.58,0,0,0,86.71,22v2.63a10.11,10.11,0,0,1-6.1,1.68,7.38,7.38,0,0,1-5.82-2.39,9.71,9.71,0,0,1-2.12-6.7A9.59,9.59,0,0,1,75,10.57,7.45,7.45,0,0,1,80.73,8a6.6,6.6,0,0,1,5.32,2.22,9.28,9.28,0,0,1,1.88,6.17Zm-2.87-2.38a5.79,5.79,0,0,0-1.17-3.77,4,4,0,0,0-3.21-1.35,4.56,4.56,0,0,0-3.37,1.41,6.44,6.44,0,0,0-1.7,3.71Z"/><path class="cls-1" d="M107.1,24.51q0,9.63-9.23,9.64a12.4,12.4,0,0,1-5.67-1.23V30.11a11.58,11.58,0,0,0,5.64,1.64q6.47,0,6.46-6.87V23h-.07A7.08,7.08,0,0,1,93,24a9.34,9.34,0,0,1-2-6.27,10.88,10.88,0,0,1,2.14-7.09A7.18,7.18,0,0,1,99,8a5.71,5.71,0,0,1,5.25,2.83h.07V8.41h2.8ZM104.3,18V15.42a5,5,0,0,0-1.41-3.58,4.64,4.64,0,0,0-3.51-1.48,4.87,4.87,0,0,0-4.07,1.89,8.4,8.4,0,0,0-1.47,5.28,7.25,7.25,0,0,0,1.41,4.68A4.54,4.54,0,0,0,99,24a4.88,4.88,0,0,0,3.84-1.67A6.23,6.23,0,0,0,104.3,18Z"/><path class="cls-1" d="M127.3,25.91h-2.8V15.83q0-5.47-4.07-5.47A4.4,4.4,0,0,0,117,11.94a5.89,5.89,0,0,0-1.4,4.06v9.91h-2.8V0h2.8V11.31h.07A6.36,6.36,0,0,1,121.39,8q5.91,0,5.91,7.12Z"/><path class="cls-1" d="M149.64,18.73h-.09q-1.25,4.07-4.9,4.07a4.66,4.66,0,0,1-3.77-1.73,7.08,7.08,0,0,1-1.43-4.65,10.15,10.15,0,0,1,2-6.41,6.21,6.21,0,0,1,5.18-2.56,3.93,3.93,0,0,1,2.2.63,2.84,2.84,0,0,1,1.24,1.59h.07c0-.32.08-1,.17-2h2.13q-.79,9.42-.8,9.58c0,2.36.68,3.54,2,3.54a3.53,3.53,0,0,0,3.07-2,9.76,9.76,0,0,0,1.22-5.18A10.38,10.38,0,0,0,155,6q-3-3-8.24-3a11,11,0,0,0-8.39,3.55A12.52,12.52,0,0,0,135,15.45a11.6,11.6,0,0,0,3.15,8.47,11.38,11.38,0,0,0,8.5,3.22,16.92,16.92,0,0,0,7.21-1.4v2.12a18.88,18.88,0,0,1-7.38,1.26,13.64,13.64,0,0,1-10-3.75,13.15,13.15,0,0,1-3.8-9.82,14.29,14.29,0,0,1,4-10.37,13.55,13.55,0,0,1,10.19-4.12,13.79,13.79,0,0,1,9.62,3.45,11.59,11.59,0,0,1,3.81,9,10.61,10.61,0,0,1-2,6.67,6,6,0,0,1-4.89,2.61Q149.65,22.8,149.64,18.73Zm-3.06-9.3a4,4,0,0,0-3.43,2,9,9,0,0,0-1.3,5,5.15,5.15,0,0,0,.88,3.18,2.8,2.8,0,0,0,2.35,1.16,3.76,3.76,0,0,0,3.35-2.11,11,11,0,0,0,1.24-5.6Q149.67,9.43,146.58,9.43Z"/><path class="cls-1" d="M177.94,25.1a9.12,9.12,0,0,1-4.79,1.22,7.92,7.92,0,0,1-6-2.44,8.83,8.83,0,0,1-2.3-6.31,9.73,9.73,0,0,1,2.48-7A8.67,8.67,0,0,1,173.91,8a9.18,9.18,0,0,1,4.06.85v2.87a7.13,7.13,0,0,0-4.17-1.36,5.64,5.64,0,0,0-4.4,1.92,7.3,7.3,0,0,0-1.71,5,6.91,6.91,0,0,0,1.61,4.85A5.55,5.55,0,0,0,173.63,24a7.06,7.06,0,0,0,4.31-1.52Z"/><path class="cls-1" d="M185,25.91h-2.8V0H185Z"/><path class="cls-1" d="M204.72,17.86H192.36a6.53,6.53,0,0,0,1.58,4.51A5.41,5.41,0,0,0,198.07,24,8.63,8.63,0,0,0,203.51,22v2.63a10.15,10.15,0,0,1-6.1,1.68,7.39,7.39,0,0,1-5.83-2.39,9.71,9.71,0,0,1-2.12-6.7,9.59,9.59,0,0,1,2.31-6.66A7.45,7.45,0,0,1,197.52,8a6.59,6.59,0,0,1,5.32,2.22,9.28,9.28,0,0,1,1.88,6.17Zm-2.87-2.38a5.68,5.68,0,0,0-1.17-3.77,4,4,0,0,0-3.21-1.35,4.52,4.52,0,0,0-3.36,1.41,6.39,6.39,0,0,0-1.71,3.71Z"/><path class="cls-1" d="M233.81,25.91H231v-10a7.54,7.54,0,0,0-.89-4.2,3.41,3.41,0,0,0-3-1.3A3.72,3.72,0,0,0,224,12a6.25,6.25,0,0,0-1.26,3.93v10H220V15.52q0-5.16-4-5.16a3.67,3.67,0,0,0-3,1.54,6.4,6.4,0,0,0-1.2,4v10H209V8.41h2.8v2.77h.07A5.94,5.94,0,0,1,217.26,8a5,5,0,0,1,3.13,1,5,5,0,0,1,1.83,2.62A6.26,6.26,0,0,1,228,8q5.78,0,5.78,7.12Z"/><path class="cls-1" d="M238,25.28v-3A8.3,8.3,0,0,0,243.09,24q3.69,0,3.69-2.46a2.16,2.16,0,0,0-.32-1.19,3.15,3.15,0,0,0-.85-.86,6.57,6.57,0,0,0-1.27-.68l-1.56-.62a20.14,20.14,0,0,1-2-.93,6.32,6.32,0,0,1-1.47-1.06,3.83,3.83,0,0,1-.89-1.34,4.73,4.73,0,0,1-.3-1.76,4.24,4.24,0,0,1,.56-2.18,5.08,5.08,0,0,1,1.51-1.59,7,7,0,0,1,2.14-1A9.77,9.77,0,0,1,244.78,8a10.15,10.15,0,0,1,4.07.78v2.84a8,8,0,0,0-4.45-1.26,5.26,5.26,0,0,0-1.42.18,3.37,3.37,0,0,0-1.08.5,2.35,2.35,0,0,0-.7.78,2,2,0,0,0-.25,1A2.34,2.34,0,0,0,241.2,14a2.53,2.53,0,0,0,.72.82,5.35,5.35,0,0,0,1.17.65c.45.2,1,.41,1.55.63.78.3,1.47.61,2.09.92A7.18,7.18,0,0,1,248.3,18a4.17,4.17,0,0,1,1,1.36,4.42,4.42,0,0,1,.35,1.83,4.32,4.32,0,0,1-.57,2.25,5,5,0,0,1-1.53,1.59,7,7,0,0,1-2.21.94,10.6,10.6,0,0,1-2.61.31A10,10,0,0,1,238,25.28Z"/><path class="cls-1" d="M261.27,26.32a8.15,8.15,0,0,1-6.2-2.45,9.12,9.12,0,0,1-2.31-6.51,9.43,9.43,0,0,1,2.41-6.88A8.63,8.63,0,0,1,261.68,8a7.83,7.83,0,0,1,6.11,2.41,9.56,9.56,0,0,1,2.2,6.68,9.4,9.4,0,0,1-2.37,6.71A8.31,8.31,0,0,1,261.27,26.32Zm.2-16a5.34,5.34,0,0,0-4.27,1.83,7.56,7.56,0,0,0-1.57,5.07,7.16,7.16,0,0,0,1.59,4.91A5.42,5.42,0,0,0,261.47,24a5.12,5.12,0,0,0,4.18-1.76,7.6,7.6,0,0,0,1.46-5,7.75,7.75,0,0,0-1.46-5.06A5.1,5.1,0,0,0,261.47,10.36Z"/><path class="cls-1" d="M289,25.91h-2.8v-10c0-3.72-1.36-5.57-4.07-5.57a4.4,4.4,0,0,0-3.48,1.58,5.83,5.83,0,0,0-1.37,4v10h-2.81V8.41h2.81v2.9h.06A6.33,6.33,0,0,1,283.08,8a5.38,5.38,0,0,1,4.39,1.85A8.29,8.29,0,0,1,289,15.21Z"/><path class="cls-1" d="M295.24,26.28a1.8,1.8,0,0,1-1.34-.56,1.87,1.87,0,0,1-.55-1.35A1.89,1.89,0,0,1,293.9,23a1.81,1.81,0,0,1,1.34-.57,1.92,1.92,0,1,1,0,3.84Z"/><path class="cls-1" d="M315.92,17.86H303.57a6.52,6.52,0,0,0,1.57,4.51A5.41,5.41,0,0,0,309.27,24,8.59,8.59,0,0,0,314.71,22v2.63a10.13,10.13,0,0,1-6.1,1.68,7.4,7.4,0,0,1-5.83-2.39,9.76,9.76,0,0,1-2.12-6.7A9.55,9.55,0,0,1,303,10.57,7.43,7.43,0,0,1,308.73,8,6.57,6.57,0,0,1,314,10.22a9.23,9.23,0,0,1,1.88,6.17Zm-2.87-2.38a5.68,5.68,0,0,0-1.17-3.77,4,4,0,0,0-3.2-1.35,4.53,4.53,0,0,0-3.37,1.41,6.52,6.52,0,0,0-1.71,3.71Z"/><path class="cls-1" d="M335.1,25.91h-2.81v-3h-.06a7.06,7.06,0,0,1-11.29,1,9.63,9.63,0,0,1-2-6.4,10.49,10.49,0,0,1,2.19-7A7.22,7.22,0,0,1,327,8a5.62,5.62,0,0,1,5.25,2.83h.06V0h2.81ZM332.29,18V15.42a5,5,0,0,0-1.4-3.59,4.69,4.69,0,0,0-3.55-1.47,4.83,4.83,0,0,0-4,1.88,8.21,8.21,0,0,0-1.47,5.19,7.36,7.36,0,0,0,1.42,4.78A4.58,4.58,0,0,0,327,24a4.77,4.77,0,0,0,3.8-1.69A6.27,6.27,0,0,0,332.29,18Z"/><path class="cls-1" d="M354.92,25.91h-2.8V23.14h-.07a5.75,5.75,0,0,1-5.4,3.18q-6.25,0-6.26-7.45V8.41h2.79v10q0,5.53,4.24,5.54a4.26,4.26,0,0,0,3.37-1.51,5.77,5.77,0,0,0,1.33-4V8.41h2.8Z"/></g></g></svg>