<svg xmlns="http://www.w3.org/2000/svg" viewBox="0 0 32.46 31.78"><defs><style>.cls-1{fill:#F56600;fill-rule:evenodd;}</style></defs><title>Asset 1</title><g id="Layer_2" data-name="Layer 2"><g id="Layer_1-2" data-name="Layer 1"><g id="Layer_1-2-2" data-name="Layer 1-2"><path class="cls-1" d="M16.31,0a16.29,16.29,0,0,0-5.15,31.75c.82.15,1.11-.36,1.11-.79V28.19C7.72,29.18,6.76,26,6.76,26A4.42,4.42,0,0,0,5,23.61c-1.47-1,.12-1,.12-1a3.46,3.46,0,0,1,2.49,1.68,3.48,3.48,0,0,0,4.72,1.37h0a3.4,3.4,0,0,1,1-2.18c-3.62-.41-7.42-1.81-7.42-8A6.26,6.26,0,0,1,7.55,11.1a5.94,5.94,0,0,1,.16-4.31s1.37-.44,4.48,1.67a15.48,15.48,0,0,1,8.16,0c3.11-2.11,4.47-1.67,4.47-1.67a5.91,5.91,0,0,1,.2,4.28,6.35,6.35,0,0,1,1.67,4.37c0,6.26-3.81,7.63-7.44,8a3.89,3.89,0,0,1,1.11,3v4.47c0,.53.29.94,1.12.78A16.29,16.29,0,0,0,16.31,0Z"/></g></g></g></svg>
