<?xml version="1.0" encoding="utf-8"?>
<!-- Generator: Adobe Illustrator 23.0.3, SVG Export Plug-In . SVG Version: 6.00 Build 0)  -->
<svg version="1.1" id="Layer_1" xmlns="http://www.w3.org/2000/svg" xmlns:xlink="http://www.w3.org/1999/xlink" x="0px" y="0px"
	 viewBox="0 0 104.5 12.6" style="enable-background:new 0 0 104.5 12.6;" xml:space="preserve">
<style type="text/css">
	.st0{opacity:0.7;enable-background:new    ;}
	.st1{fill:#6E6964;}
</style>
<title>Asset 4</title>
<g>
	<g id="Layer_1-2">
		<g class="st0">
			<path class="st1" d="M1.6,7.8L1.6,7.8l0,3H0.8V3.5h0.8v0.9h0c0.4-0.7,1-1,1.7-1c0.6,0,1.1,0.2,1.5,0.7c0.4,0.4,0.5,1,0.5,1.8
				c0,0.8-0.2,1.5-0.6,2c-0.4,0.5-1,0.8-1.7,0.8C2.5,8.6,2,8.3,1.6,7.8z M1.6,5.8v0.7c0,0.4,0.1,0.8,0.4,1.1c0.3,0.3,0.6,0.4,1,0.4
				c0.5,0,0.9-0.2,1.1-0.6s0.4-0.9,0.4-1.5c0-0.6-0.1-1-0.4-1.3s-0.6-0.5-1-0.5C2.7,4.1,2.3,4.2,2,4.5C1.8,4.9,1.6,5.3,1.6,5.8z"/>
			<path class="st1" d="M9.3,4.3C9.2,4.2,9,4.1,8.7,4.1c-0.3,0-0.6,0.2-0.9,0.5S7.5,5.4,7.5,6v2.5H6.7v-5h0.8v1h0
				C7.6,4.2,7.8,3.9,8,3.7c0.2-0.2,0.5-0.3,0.8-0.3c0.2,0,0.4,0,0.5,0.1V4.3z"/>
			<path class="st1" d="M12.3,8.6c-0.7,0-1.3-0.2-1.8-0.7C10,7.4,9.8,6.8,9.8,6.1c0-0.8,0.2-1.5,0.7-2s1.1-0.7,1.9-0.7
				c0.7,0,1.3,0.2,1.7,0.7s0.6,1.1,0.6,1.9c0,0.8-0.2,1.4-0.7,1.9C13.6,8.4,13,8.6,12.3,8.6z M12.3,4.1c-0.5,0-0.9,0.2-1.2,0.5
				c-0.3,0.3-0.4,0.8-0.4,1.4c0,0.6,0.2,1.1,0.5,1.4s0.7,0.5,1.2,0.5c0.5,0,0.9-0.2,1.2-0.5s0.4-0.8,0.4-1.4c0-0.6-0.1-1.1-0.4-1.4
				S12.8,4.1,12.3,4.1z"/>
			<path class="st1" d="M20.3,8.5h-0.8V7.7h0c-0.4,0.6-0.9,1-1.7,1c-0.6,0-1.1-0.2-1.5-0.7c-0.4-0.4-0.6-1.1-0.6-1.8
				c0-0.8,0.2-1.5,0.6-2s1-0.7,1.7-0.7c0.7,0,1.2,0.3,1.5,0.8h0V1.1h0.8V8.5z M19.5,6.2V5.5c0-0.4-0.1-0.7-0.4-1s-0.6-0.4-1-0.4
				c-0.5,0-0.9,0.2-1.2,0.5s-0.4,0.9-0.4,1.5c0,0.6,0.1,1,0.4,1.4c0.3,0.3,0.6,0.5,1.1,0.5c0.4,0,0.8-0.2,1.1-0.5S19.5,6.7,19.5,6.2
				z"/>
			<path class="st1" d="M25.9,6.2h-3.5c0,0.6,0.2,1,0.4,1.3s0.7,0.5,1.2,0.5c0.6,0,1.1-0.2,1.6-0.6v0.8c-0.4,0.3-1,0.5-1.7,0.5
				c-0.7,0-1.3-0.2-1.7-0.7c-0.4-0.5-0.6-1.1-0.6-1.9c0-0.8,0.2-1.4,0.7-1.9c0.4-0.5,1-0.7,1.6-0.7S25,3.6,25.4,4s0.5,1,0.5,1.8V6.2
				z M25.1,5.5c0-0.5-0.1-0.8-0.3-1.1s-0.5-0.4-0.9-0.4c-0.4,0-0.7,0.1-1,0.4s-0.4,0.6-0.5,1.1H25.1z"/>
			<path class="st1" d="M31.4,8.1c0,1.8-0.9,2.8-2.6,2.8c-0.6,0-1.2-0.1-1.6-0.4V9.7c0.6,0.3,1.1,0.5,1.6,0.5c1.2,0,1.8-0.7,1.8-2
				V7.7h0c-0.4,0.6-1,1-1.7,1c-0.6,0-1.1-0.2-1.5-0.7c-0.4-0.4-0.6-1-0.6-1.8c0-0.8,0.2-1.5,0.6-2s1-0.8,1.7-0.8
				c0.7,0,1.2,0.3,1.5,0.8h0V3.5h0.8V8.1z M30.6,6.2V5.5c0-0.4-0.1-0.7-0.4-1s-0.6-0.4-1-0.4c-0.5,0-0.9,0.2-1.2,0.5
				c-0.3,0.4-0.4,0.9-0.4,1.5c0,0.6,0.1,1,0.4,1.3c0.3,0.3,0.6,0.5,1.1,0.5c0.4,0,0.8-0.2,1.1-0.5S30.6,6.7,30.6,6.2z"/>
			<path class="st1" d="M37.2,8.5h-0.8V5.6c0-1-0.4-1.6-1.2-1.6c-0.4,0-0.7,0.2-1,0.5c-0.3,0.3-0.4,0.7-0.4,1.2v2.8H33V1.1h0.8v3.2
				h0c0.4-0.6,0.9-0.9,1.6-0.9c1.1,0,1.7,0.7,1.7,2V8.5z"/>
			<path class="st1" d="M43.6,6.4L43.6,6.4c-0.3,0.8-0.7,1.2-1.4,1.2c-0.4,0-0.8-0.2-1.1-0.5s-0.4-0.8-0.4-1.3
				c0-0.7,0.2-1.3,0.6-1.8c0.4-0.5,0.9-0.7,1.5-0.7c0.2,0,0.4,0.1,0.6,0.2s0.3,0.3,0.4,0.5h0c0-0.1,0-0.3,0-0.6h0.6
				C44.2,5.1,44.1,6,44.1,6c0,0.7,0.2,1,0.6,1c0.4,0,0.6-0.2,0.9-0.6s0.3-0.9,0.3-1.5c0-0.9-0.3-1.6-0.8-2.2S43.7,2,42.7,2
				c-1,0-1.8,0.3-2.4,1s-0.9,1.5-0.9,2.5c0,1,0.3,1.8,0.9,2.4c0.6,0.6,1.4,0.9,2.4,0.9c0.8,0,1.5-0.1,2.1-0.4v0.6
				c-0.6,0.2-1.3,0.4-2.1,0.4c-1.2,0-2.1-0.4-2.9-1.1c-0.7-0.7-1.1-1.6-1.1-2.8c0-1.2,0.4-2.2,1.1-3s1.7-1.2,2.9-1.2
				c1.1,0,2,0.3,2.7,1s1.1,1.5,1.1,2.6c0,0.8-0.2,1.4-0.6,1.9c-0.4,0.5-0.8,0.7-1.4,0.7C43.9,7.6,43.6,7.2,43.6,6.4z M42.7,3.8
				c-0.4,0-0.7,0.2-1,0.6s-0.4,0.9-0.4,1.4c0,0.4,0.1,0.7,0.3,0.9S42,7,42.3,7c0.4,0,0.7-0.2,1-0.6c0.2-0.4,0.4-0.9,0.4-1.6
				C43.6,4.1,43.3,3.8,42.7,3.8z"/>
			<path class="st1" d="M51.7,8.3c-0.4,0.2-0.8,0.3-1.4,0.3c-0.7,0-1.3-0.2-1.7-0.7c-0.4-0.5-0.7-1.1-0.7-1.8c0-0.8,0.2-1.5,0.7-2
				c0.5-0.5,1.1-0.8,1.9-0.8c0.4,0,0.8,0.1,1.2,0.2v0.8c-0.4-0.3-0.8-0.4-1.2-0.4c-0.5,0-0.9,0.2-1.3,0.5C48.9,5,48.7,5.5,48.7,6
				c0,0.6,0.2,1,0.5,1.4s0.7,0.5,1.2,0.5c0.4,0,0.8-0.1,1.2-0.4V8.3z"/>
			<path class="st1" d="M53.7,8.5h-0.8V1.1h0.8V8.5z"/>
			<path class="st1" d="M59.3,6.2h-3.5c0,0.6,0.2,1,0.4,1.3s0.7,0.5,1.2,0.5c0.6,0,1.1-0.2,1.6-0.6v0.8c-0.4,0.3-1,0.5-1.7,0.5
				c-0.7,0-1.3-0.2-1.7-0.7c-0.4-0.5-0.6-1.1-0.6-1.9c0-0.8,0.2-1.4,0.7-1.9c0.4-0.5,1-0.7,1.6-0.7s1.2,0.2,1.5,0.6s0.5,1,0.5,1.8
				V6.2z M58.5,5.5c0-0.5-0.1-0.8-0.3-1.1c-0.2-0.3-0.5-0.4-0.9-0.4c-0.4,0-0.7,0.1-1,0.4s-0.4,0.6-0.5,1.1H58.5z"/>
			<path class="st1" d="M67.6,8.5h-0.8V5.6c0-0.6-0.1-1-0.3-1.2c-0.2-0.2-0.5-0.4-0.9-0.4c-0.3,0-0.6,0.2-0.9,0.5
				c-0.2,0.3-0.4,0.7-0.4,1.1v2.9h-0.8v-3c0-1-0.4-1.5-1.1-1.5c-0.4,0-0.6,0.1-0.9,0.4c-0.2,0.3-0.3,0.7-0.3,1.2v2.9h-0.8v-5h0.8
				v0.8h0c0.4-0.6,0.9-0.9,1.6-0.9c0.3,0,0.6,0.1,0.9,0.3c0.3,0.2,0.4,0.4,0.5,0.8c0.4-0.7,0.9-1,1.7-1c1.1,0,1.7,0.7,1.7,2V8.5z"/>
			<path class="st1" d="M68.8,8.3V7.5c0.4,0.3,0.9,0.5,1.4,0.5c0.7,0,1.1-0.2,1.1-0.7c0-0.1,0-0.2-0.1-0.3c-0.1-0.1-0.1-0.2-0.2-0.2
				c-0.1-0.1-0.2-0.1-0.4-0.2c-0.1-0.1-0.3-0.1-0.4-0.2C70,6.2,69.8,6.1,69.6,6c-0.2-0.1-0.3-0.2-0.4-0.3c-0.1-0.1-0.2-0.2-0.3-0.4
				c-0.1-0.1-0.1-0.3-0.1-0.5c0-0.2,0.1-0.4,0.2-0.6c0.1-0.2,0.3-0.3,0.4-0.5c0.2-0.1,0.4-0.2,0.6-0.3c0.2-0.1,0.5-0.1,0.7-0.1
				c0.4,0,0.8,0.1,1.2,0.2v0.8c-0.4-0.2-0.8-0.4-1.3-0.4c-0.1,0-0.3,0-0.4,0.1c-0.1,0-0.2,0.1-0.3,0.1c-0.1,0.1-0.2,0.1-0.2,0.2
				c0,0.1-0.1,0.2-0.1,0.3c0,0.1,0,0.2,0.1,0.3c0,0.1,0.1,0.2,0.2,0.2s0.2,0.1,0.3,0.2s0.3,0.1,0.4,0.2c0.2,0.1,0.4,0.2,0.6,0.3
				c0.2,0.1,0.3,0.2,0.4,0.3C71.9,6.4,72,6.5,72,6.6c0.1,0.1,0.1,0.3,0.1,0.5c0,0.2-0.1,0.5-0.2,0.6c-0.1,0.2-0.3,0.3-0.4,0.5
				s-0.4,0.2-0.6,0.3s-0.5,0.1-0.7,0.1C69.6,8.6,69.2,8.5,68.8,8.3z"/>
			<path class="st1" d="M75.5,8.6c-0.7,0-1.3-0.2-1.8-0.7C73.2,7.4,73,6.8,73,6.1c0-0.8,0.2-1.5,0.7-2s1.1-0.7,1.9-0.7
				c0.7,0,1.3,0.2,1.7,0.7c0.4,0.5,0.6,1.1,0.6,1.9c0,0.8-0.2,1.4-0.7,1.9C76.8,8.4,76.2,8.6,75.5,8.6z M75.5,4.1
				c-0.5,0-0.9,0.2-1.2,0.5C74,4.9,73.8,5.4,73.8,6c0,0.6,0.2,1.1,0.5,1.4s0.7,0.5,1.2,0.5c0.5,0,0.9-0.2,1.2-0.5
				C77,7.1,77.1,6.6,77.1,6c0-0.6-0.1-1.1-0.4-1.4C76.4,4.2,76,4.1,75.5,4.1z"/>
			<path class="st1" d="M83.4,8.5h-0.8V5.6c0-1.1-0.4-1.6-1.2-1.6c-0.4,0-0.7,0.2-1,0.5C80.2,4.8,80,5.2,80,5.6v2.9h-0.8v-5H80v0.8
				h0c0.4-0.6,0.9-0.9,1.6-0.9c0.5,0,1,0.2,1.3,0.5c0.3,0.4,0.4,0.9,0.4,1.5V8.5z"/>
			<path class="st1" d="M85.2,8.6c-0.2,0-0.3-0.1-0.4-0.2c-0.1-0.1-0.2-0.2-0.2-0.4s0.1-0.3,0.2-0.4c0.1-0.1,0.2-0.2,0.4-0.2
				c0.2,0,0.3,0.1,0.4,0.2c0.1,0.1,0.2,0.2,0.2,0.4s-0.1,0.3-0.2,0.4S85.3,8.6,85.2,8.6z"/>
			<path class="st1" d="M91.1,6.2h-3.5c0,0.6,0.2,1,0.4,1.3s0.7,0.5,1.2,0.5c0.6,0,1.1-0.2,1.6-0.6v0.8c-0.4,0.3-1,0.5-1.7,0.5
				c-0.7,0-1.3-0.2-1.7-0.7c-0.4-0.5-0.6-1.1-0.6-1.9c0-0.8,0.2-1.4,0.7-1.9c0.4-0.5,1-0.7,1.6-0.7s1.2,0.2,1.5,0.6s0.5,1,0.5,1.8
				V6.2z M90.3,5.5c0-0.5-0.1-0.8-0.3-1.1c-0.2-0.3-0.5-0.4-0.9-0.4c-0.4,0-0.7,0.1-1,0.4s-0.4,0.6-0.5,1.1H90.3z"/>
			<path class="st1" d="M96.6,8.5h-0.8V7.7h0c-0.4,0.6-0.9,1-1.7,1c-0.6,0-1.1-0.2-1.5-0.7c-0.4-0.4-0.6-1.1-0.6-1.8
				c0-0.8,0.2-1.5,0.6-2s1-0.7,1.7-0.7c0.7,0,1.2,0.3,1.5,0.8h0V1.1h0.8V8.5z M95.8,6.2V5.5c0-0.4-0.1-0.7-0.4-1s-0.6-0.4-1-0.4
				c-0.5,0-0.9,0.2-1.2,0.5s-0.4,0.9-0.4,1.5c0,0.6,0.1,1,0.4,1.4c0.3,0.3,0.6,0.5,1.1,0.5c0.4,0,0.8-0.2,1.1-0.5
				C95.6,7.1,95.8,6.7,95.8,6.2z"/>
			<path class="st1" d="M102.2,8.5h-0.8V7.7h0c-0.3,0.6-0.8,0.9-1.5,0.9c-1.2,0-1.8-0.7-1.8-2.1v-3h0.8v2.9c0,1.1,0.4,1.6,1.2,1.6
				c0.4,0,0.7-0.1,1-0.4c0.3-0.3,0.4-0.7,0.4-1.1V3.5h0.8V8.5z"/>
		</g>
	</g>
</g>
</svg>
