<?xml version="1.0" encoding="utf-8"?>
<!-- Generator: Adobe Illustrator 23.0.3, SVG Export Plug-In . SVG Version: 6.00 Build 0)  -->
<svg version="1.1" id="Layer_1" xmlns="http://www.w3.org/2000/svg" xmlns:xlink="http://www.w3.org/1999/xlink" x="0px" y="0px"
	 viewBox="0 0 413 62" style="enable-background:new 0 0 413 62;" xml:space="preserve">
<style type="text/css">
	.st0{enable-background:new    ;}
	.st1{fill:#6E6964;}
	.st2{fill:none;stroke:#707070;stroke-width:5;stroke-linecap:round;}
</style>
<g id="Group_11" transform="translate(-62 -64)">
	<g class="st0">
		<path class="st1" d="M93.6,114h-7.1v-12.8H73.4V114h-7.1V82.5h7.1v12.6h13.1V82.5h7.1V114z"/>
		<path class="st1" d="M119,88.3h-11.1V96h10.2v5.8h-10.2V114h-7.1V82.5H119V88.3z"/>
		<path class="st1" d="M122.3,112.8v-7c1.3,1.1,2.7,1.9,4.2,2.4s3,0.8,4.5,0.8c0.9,0,1.7-0.1,2.3-0.2c0.7-0.2,1.2-0.4,1.7-0.7
			c0.4-0.3,0.8-0.6,1-1s0.3-0.8,0.3-1.3c0-0.6-0.2-1.2-0.5-1.6c-0.4-0.5-0.8-0.9-1.4-1.3s-1.3-0.8-2.2-1.2s-1.7-0.8-2.7-1.2
			c-2.5-1-4.3-2.3-5.5-3.8s-1.8-3.3-1.8-5.4c0-1.6,0.3-3.1,1-4.2c0.7-1.2,1.6-2.1,2.7-2.9s2.4-1.3,3.9-1.7c1.5-0.4,3.1-0.5,4.7-0.5
			c1.6,0,3.1,0.1,4.4,0.3c1.3,0.2,2.4,0.5,3.5,0.9v6.6c-0.5-0.4-1.1-0.7-1.7-1s-1.3-0.5-1.9-0.7c-0.7-0.2-1.3-0.3-2-0.4
			s-1.3-0.1-1.9-0.1c-0.8,0-1.5,0.1-2.2,0.2c-0.7,0.2-1.2,0.4-1.7,0.6s-0.8,0.6-1.1,1c-0.2,0.4-0.4,0.8-0.4,1.3s0.1,1,0.4,1.4
			c0.3,0.4,0.7,0.8,1.2,1.2c0.5,0.4,1.1,0.7,1.9,1.1c0.7,0.4,1.6,0.7,2.5,1.1c1.3,0.5,2.4,1.1,3.4,1.7s1.9,1.3,2.6,2
			s1.3,1.6,1.6,2.6c0.4,1,0.6,2.1,0.6,3.4c0,1.8-0.3,3.2-1,4.4c-0.7,1.2-1.6,2.2-2.7,2.9c-1.1,0.7-2.5,1.3-4,1.6
			c-1.5,0.3-3.1,0.5-4.8,0.5s-3.4-0.1-4.9-0.4C124.8,113.8,123.4,113.4,122.3,112.8z"/>
		<path class="st1" d="M167.9,114H149V82.5h18.2v5.8h-11.1v7h10.3v5.8h-10.3v7.2h11.8V114z"/>
	</g>
	<line id="Line_1" class="st2" x1="203.5" y1="66.5" x2="203.5" y2="123.5"/>
	<g class="st0">
		<path class="st1" d="M251.7,90h-3.2v-5.7h-5.8V90h-3.2V76h3.2v5.6h5.8V76h3.2V90z"/>
		<path class="st1" d="M264.1,90H261v-1.5l0,0c-0.8,1.2-1.8,1.8-3.1,1.8c-2.3,0-3.5-1.4-3.5-4.2v-6h3.1v5.8c0,1.4,0.6,2.1,1.7,2.1
			c0.6,0,1-0.2,1.3-0.6s0.5-0.9,0.5-1.6V80h3.1V90z"/>
		<path class="st1" d="M282.6,90h-3.1v-5.7c0-1.5-0.5-2.2-1.6-2.2c-0.5,0-0.9,0.2-1.2,0.7s-0.5,1-0.5,1.6V90h-3.1v-5.8
			c0-1.4-0.5-2.1-1.6-2.1c-0.5,0-0.9,0.2-1.3,0.6s-0.5,1-0.5,1.7V90h-3.1V80h3.1v1.6l0,0c0.3-0.5,0.8-1,1.3-1.3s1.2-0.5,1.9-0.5
			c1.4,0,2.4,0.6,2.9,1.9c0.8-1.2,1.9-1.9,3.4-1.9c2.2,0,3.3,1.3,3.3,4V90H282.6z"/>
		<path class="st1" d="M293.4,90h-2.9v-1.4l0,0c-0.7,1.1-1.7,1.7-3,1.7c-1,0-1.7-0.3-2.3-0.8s-0.8-1.3-0.8-2.2
			c0-1.9,1.1-3.1,3.4-3.4l2.7-0.4c0-1.1-0.6-1.6-1.8-1.6c-1.2,0-2.3,0.4-3.4,1.1v-2.3c0.4-0.2,1-0.4,1.8-0.6s1.4-0.3,2-0.3
			c2.9,0,4.3,1.4,4.3,4.3L293.4,90L293.4,90z M290.5,85.9v-0.7l-1.8,0.2c-1,0.1-1.5,0.6-1.5,1.4c0,0.4,0.1,0.6,0.4,0.9
			s0.6,0.3,1,0.3c0.6,0,1.1-0.2,1.4-0.6S290.5,86.5,290.5,85.9z"/>
		<path class="st1" d="M305.5,90h-3.1v-5.6c0-1.5-0.6-2.3-1.7-2.3c-0.5,0-1,0.2-1.3,0.6s-0.5,0.9-0.5,1.6V90h-3.1V80h3.1v1.6l0,0
			c0.7-1.2,1.8-1.8,3.2-1.8c2.2,0,3.3,1.4,3.3,4.1V90H305.5z"/>
		<path class="st1" d="M321.8,78.6h-4.9V82h4.5v2.6h-4.5V90h-3.2V76h8.1V78.6z"/>
		<path class="st1" d="M331.5,90h-2.9v-1.4l0,0c-0.7,1.1-1.7,1.7-3,1.7c-1,0-1.7-0.3-2.3-0.8s-0.8-1.3-0.8-2.2
			c0-1.9,1.1-3.1,3.4-3.4l2.7-0.4c0-1.1-0.6-1.6-1.8-1.6c-1.2,0-2.3,0.4-3.4,1.1v-2.3c0.4-0.2,1-0.4,1.8-0.6s1.4-0.3,2-0.3
			c2.9,0,4.3,1.4,4.3,4.3L331.5,90L331.5,90z M328.6,85.9v-0.7l-1.8,0.2c-1,0.1-1.5,0.6-1.5,1.4c0,0.4,0.1,0.6,0.4,0.9
			s0.6,0.3,1,0.3c0.6,0,1.1-0.2,1.4-0.6S328.6,86.5,328.6,85.9z"/>
		<path class="st1" d="M341.6,89.6c-0.7,0.4-1.7,0.6-3,0.6c-1.5,0-2.8-0.5-3.7-1.4s-1.4-2.1-1.4-3.6c0-1.7,0.5-3,1.5-4
			s2.4-1.5,4.1-1.5c1.2,0,2,0.2,2.6,0.5v2.6c-0.6-0.5-1.4-0.7-2.2-0.7c-0.9,0-1.6,0.3-2.1,0.8s-0.8,1.2-0.8,2.1s0.2,1.6,0.7,2.1
			s1.2,0.8,2,0.8s1.5-0.2,2.3-0.7V89.6z"/>
		<path class="st1" d="M349.6,89.9c-0.5,0.2-1.1,0.4-2.1,0.4c-2.2,0-3.3-1.1-3.3-3.4v-4.6h-1.6V80h1.6v-2.2l3.1-0.9v3h2.2v2.3h-2.2
			v4c0,1,0.4,1.6,1.2,1.6c0.3,0,0.7-0.1,1-0.3L349.6,89.9L349.6,89.9z"/>
		<path class="st1" d="M356.1,90.2c-1.7,0-3-0.5-3.9-1.4s-1.4-2.2-1.4-3.8c0-1.7,0.5-2.9,1.5-3.9s2.3-1.4,4-1.4s3,0.5,3.9,1.4
			s1.4,2.2,1.4,3.7c0,1.7-0.5,3-1.5,3.9S357.8,90.2,356.1,90.2z M356.1,82.1c-0.7,0-1.3,0.3-1.7,0.8s-0.6,1.2-0.6,2.1
			c0,1.9,0.8,2.9,2.3,2.9s2.2-1,2.2-3C358.4,83.1,357.6,82.1,356.1,82.1z"/>
		<path class="st1" d="M370,82.8c-0.4-0.2-0.8-0.3-1.3-0.3c-0.7,0-1.2,0.2-1.6,0.7s-0.6,1.2-0.6,2V90h-3.1V80h3.1v1.9l0,0
			c0.5-1.4,1.4-2,2.6-2c0.3,0,0.6,0,0.8,0.1v2.8H370z"/>
		<path class="st1" d="M370.9,89.7v-2.5c0.5,0.3,1,0.5,1.5,0.7s1,0.2,1.4,0.2c0.5,0,1-0.1,1.3-0.2s0.5-0.4,0.5-0.7
			c0-0.2-0.1-0.4-0.2-0.5s-0.3-0.2-0.6-0.3s-0.5-0.2-0.7-0.3s-0.5-0.2-0.8-0.3c-0.4-0.1-0.7-0.3-1-0.5s-0.6-0.4-0.8-0.6
			s-0.4-0.5-0.5-0.8s-0.2-0.7-0.2-1.1c0-0.6,0.1-1,0.4-1.4s0.6-0.7,1-1s0.9-0.4,1.4-0.6s1.1-0.2,1.6-0.2c0.4,0,0.9,0,1.3,0.1
			s0.9,0.2,1.3,0.3v2.4c-0.4-0.2-0.8-0.4-1.3-0.5s-0.9-0.2-1.3-0.2c-0.2,0-0.4,0-0.6,0.1s-0.3,0.1-0.5,0.2s-0.2,0.2-0.3,0.3
			s-0.1,0.2-0.1,0.4c0,0.2,0.1,0.3,0.2,0.5s0.3,0.2,0.5,0.3s0.4,0.2,0.6,0.3s0.5,0.2,0.7,0.2c0.4,0.1,0.8,0.3,1.1,0.5
			s0.6,0.4,0.9,0.6s0.4,0.5,0.5,0.8s0.2,0.7,0.2,1.1c0,0.6-0.1,1.1-0.4,1.5s-0.6,0.8-1,1s-0.9,0.5-1.5,0.6s-1.1,0.2-1.7,0.2
			C372.9,90.2,371.9,90.1,370.9,89.7z"/>
		<path class="st1" d="M385.6,89.5v-3.1c0.6,0.5,1.2,0.8,1.8,1.1s1.3,0.4,2,0.4c0.4,0,0.7,0,1-0.1s0.5-0.2,0.7-0.3s0.3-0.3,0.4-0.4
			s0.1-0.4,0.1-0.6c0-0.3-0.1-0.5-0.2-0.7s-0.4-0.4-0.6-0.6s-0.6-0.4-1-0.5s-0.8-0.3-1.2-0.5c-1.1-0.5-1.9-1-2.4-1.7
			s-0.8-1.5-0.8-2.4c0-0.7,0.1-1.4,0.4-1.9s0.7-1,1.2-1.3s1.1-0.6,1.8-0.7s1.4-0.2,2.1-0.2s1.4,0,1.9,0.1s1.1,0.2,1.6,0.4v2.9
			c-0.2-0.2-0.5-0.3-0.8-0.4s-0.6-0.2-0.9-0.3s-0.6-0.1-0.9-0.2s-0.6-0.1-0.8-0.1c-0.4,0-0.7,0-1,0.1s-0.5,0.2-0.7,0.3
			s-0.4,0.3-0.5,0.4s-0.2,0.4-0.2,0.6s0.1,0.4,0.2,0.6s0.3,0.4,0.5,0.5s0.5,0.3,0.8,0.5s0.7,0.3,1.1,0.5c0.6,0.2,1.1,0.5,1.5,0.7
			s0.8,0.6,1.1,0.9s0.6,0.7,0.7,1.1s0.3,0.9,0.3,1.5c0,0.8-0.1,1.4-0.4,2s-0.7,1-1.2,1.3s-1.1,0.6-1.8,0.7s-1.4,0.2-2.1,0.2
			c-0.8,0-1.5-0.1-2.2-0.2S386.1,89.7,385.6,89.5z"/>
		<path class="st1" d="M401.9,90.2c-1.7,0-3-0.5-3.9-1.4s-1.4-2.2-1.4-3.8c0-1.7,0.5-2.9,1.5-3.9s2.3-1.4,4-1.4s3,0.5,3.9,1.4
			s1.4,2.2,1.4,3.7c0,1.7-0.5,3-1.5,3.9S403.6,90.2,401.9,90.2z M402,82.1c-0.7,0-1.3,0.3-1.7,0.8s-0.6,1.2-0.6,2.1
			c0,1.9,0.8,2.9,2.3,2.9s2.2-1,2.2-3C404.2,83.1,403.5,82.1,402,82.1z"/>
		<path class="st1" d="M415.6,77.6c-0.4-0.2-0.8-0.2-1.1-0.2c-1,0-1.5,0.5-1.5,1.6v1h2.3v2.3H413V90h-3.1v-7.7h-1.7V80h1.7v-1.2
			c0-1.1,0.4-2.1,1.1-2.8s1.8-1,3-1c0.6,0,1.1,0.1,1.6,0.2V77.6z"/>
		<path class="st1" d="M423.1,89.9c-0.5,0.2-1.1,0.4-2.1,0.4c-2.2,0-3.3-1.1-3.3-3.4v-4.6h-1.6V80h1.6v-2.2l3.1-0.9v3h2.2v2.3h-2.2
			v4c0,1,0.4,1.6,1.2,1.6c0.3,0,0.7-0.1,1-0.3L423.1,89.9L423.1,89.9z"/>
		<path class="st1" d="M439.4,80l-2.9,10h-3.2l-1.5-5.9c-0.1-0.4-0.2-0.8-0.2-1.3h-0.1c0,0.5-0.1,0.9-0.2,1.2l-1.6,5.9h-3.2l-2.8-10
			h3.1l1.4,6.5c0.1,0.3,0.1,0.7,0.1,1.1h0.1c0-0.5,0.1-0.8,0.2-1.2l1.7-6.5h2.9l1.5,6.5c0,0.2,0.1,0.5,0.1,1.1h0.1
			c0-0.4,0.1-0.8,0.2-1.1l1.3-6.5h3V80z"/>
		<path class="st1" d="M449.1,90h-2.9v-1.4l0,0c-0.7,1.1-1.7,1.7-3,1.7c-1,0-1.7-0.3-2.3-0.8s-0.8-1.3-0.8-2.2
			c0-1.9,1.1-3.1,3.4-3.4l2.7-0.4c0-1.1-0.6-1.6-1.8-1.6c-1.2,0-2.3,0.4-3.4,1.1v-2.3c0.4-0.2,1-0.4,1.8-0.6s1.4-0.3,2-0.3
			c2.9,0,4.3,1.4,4.3,4.3L449.1,90L449.1,90z M446.2,85.9v-0.7l-1.8,0.2c-1,0.1-1.5,0.6-1.5,1.4c0,0.4,0.1,0.6,0.4,0.9
			s0.6,0.3,1,0.3c0.6,0,1.1-0.2,1.4-0.6S446.2,86.5,446.2,85.9z"/>
		<path class="st1" d="M458.1,82.8c-0.4-0.2-0.8-0.3-1.3-0.3c-0.7,0-1.2,0.2-1.6,0.7s-0.6,1.2-0.6,2V90h-3.1V80h3.1v1.9l0,0
			c0.5-1.4,1.4-2,2.6-2c0.3,0,0.6,0,0.8,0.1v2.8H458.1z"/>
		<path class="st1" d="M468.4,85.9h-6.5c0.1,1.5,1,2.2,2.7,2.2c1.1,0,2.1-0.3,2.9-0.8v2.2c-0.9,0.5-2.1,0.7-3.6,0.7
			c-1.6,0-2.9-0.4-3.8-1.3s-1.3-2.1-1.3-3.7c0-1.7,0.5-3,1.4-3.9s2.1-1.5,3.6-1.5s2.6,0.4,3.4,1.3s1.2,2,1.2,3.5L468.4,85.9
			L468.4,85.9z M465.6,84c0-1.4-0.6-2.1-1.7-2.1c-0.5,0-0.9,0.2-1.3,0.6s-0.6,0.9-0.7,1.5H465.6z"/>
	</g>
	<g class="st0">
		<path class="st1" d="M248,117h-8.4v-14h8.1v2.6h-4.9v3.1h4.6v2.6h-4.6v3.2h5.2L248,117L248,117z"/>
		<path class="st1" d="M259.6,117h-3.1v-5.6c0-1.5-0.6-2.3-1.7-2.3c-0.5,0-1,0.2-1.3,0.6s-0.5,0.9-0.5,1.6v5.7h-3.1v-10h3.1v1.6l0,0
			c0.7-1.2,1.8-1.8,3.2-1.8c2.2,0,3.3,1.4,3.3,4.1v6.1H259.6z"/>
		<path class="st1" d="M271.8,115.9c0,1.9-0.5,3.3-1.6,4.3s-2.6,1.5-4.7,1.5c-1.3,0-2.4-0.2-3.2-0.6v-2.6c1,0.6,2.1,0.9,3.1,0.9
			s1.8-0.3,2.4-0.8s0.9-1.3,0.9-2.2v-0.8l0,0c-0.7,1.1-1.7,1.7-3.1,1.7c-1.3,0-2.3-0.4-3-1.3s-1.1-2.1-1.1-3.6c0-1.7,0.4-3,1.3-4
			s1.9-1.5,3.3-1.5c1.2,0,2.1,0.5,2.7,1.4l0,0V107h3.1L271.8,115.9L271.8,115.9z M268.8,112.2v-0.8c0-0.6-0.2-1.2-0.6-1.6
			s-0.9-0.7-1.5-0.7c-0.7,0-1.2,0.3-1.6,0.8s-0.6,1.3-0.6,2.3c0,0.8,0.2,1.5,0.6,2s0.9,0.7,1.5,0.7s1.2-0.2,1.5-0.7
			S268.8,113,268.8,112.2z"/>
		<path class="st1" d="M276,105.4c-0.5,0-0.9-0.2-1.3-0.5s-0.5-0.7-0.5-1.1c0-0.5,0.2-0.8,0.5-1.1s0.8-0.4,1.3-0.4s1,0.1,1.3,0.4
			s0.5,0.7,0.5,1.1c0,0.5-0.2,0.9-0.5,1.2S276.5,105.4,276,105.4z M277.5,117h-3.1v-10h3.1V117z"/>
		<path class="st1" d="M289.8,117h-3.1v-5.6c0-1.5-0.6-2.3-1.7-2.3c-0.5,0-1,0.2-1.3,0.6s-0.5,0.9-0.5,1.6v5.7h-3.1v-10h3.1v1.6l0,0
			c0.7-1.2,1.8-1.8,3.2-1.8c2.2,0,3.3,1.4,3.3,4.1v6.1H289.8z"/>
		<path class="st1" d="M301.2,112.9h-6.5c0.1,1.5,1,2.2,2.7,2.2c1.1,0,2.1-0.3,2.9-0.8v2.2c-0.9,0.5-2.1,0.7-3.6,0.7
			c-1.6,0-2.9-0.4-3.8-1.3s-1.3-2.1-1.3-3.7c0-1.7,0.5-3,1.4-3.9s2.1-1.5,3.6-1.5s2.6,0.4,3.4,1.3s1.2,2,1.2,3.5L301.2,112.9
			L301.2,112.9z M298.3,111c0-1.4-0.6-2.1-1.7-2.1c-0.5,0-0.9,0.2-1.3,0.6s-0.6,0.9-0.7,1.5H298.3z"/>
		<path class="st1" d="M312,112.9h-6.5c0.1,1.5,1,2.2,2.7,2.2c1.1,0,2.1-0.3,2.9-0.8v2.2c-0.9,0.5-2.1,0.7-3.6,0.7
			c-1.6,0-2.9-0.4-3.8-1.3s-1.3-2.1-1.3-3.7c0-1.7,0.5-3,1.4-3.9s2.1-1.5,3.6-1.5s2.6,0.4,3.4,1.3s1.2,2,1.2,3.5L312,112.9
			L312,112.9z M309.2,111c0-1.4-0.6-2.1-1.7-2.1c-0.5,0-0.9,0.2-1.3,0.6s-0.6,0.9-0.7,1.5H309.2z"/>
		<path class="st1" d="M320.4,109.8c-0.4-0.2-0.8-0.3-1.3-0.3c-0.7,0-1.2,0.2-1.6,0.7s-0.6,1.2-0.6,2v4.8h-3.1v-10h3.1v1.9l0,0
			c0.5-1.4,1.4-2,2.6-2c0.3,0,0.6,0,0.8,0.1v2.8H320.4z"/>
		<path class="st1" d="M323.4,105.4c-0.5,0-0.9-0.2-1.3-0.5s-0.5-0.7-0.5-1.1c0-0.5,0.2-0.8,0.5-1.1s0.8-0.4,1.3-0.4s1,0.1,1.3,0.4
			s0.5,0.7,0.5,1.1c0,0.5-0.2,0.9-0.5,1.2S324,105.4,323.4,105.4z M325,117h-3.1v-10h3.1V117z"/>
		<path class="st1" d="M337.2,117h-3.1v-5.6c0-1.5-0.6-2.3-1.7-2.3c-0.5,0-1,0.2-1.3,0.6s-0.5,0.9-0.5,1.6v5.7h-3.1v-10h3.1v1.6l0,0
			c0.7-1.2,1.8-1.8,3.2-1.8c2.2,0,3.3,1.4,3.3,4.1v6.1H337.2z"/>
		<path class="st1" d="M349.5,115.9c0,1.9-0.5,3.3-1.6,4.3s-2.6,1.5-4.7,1.5c-1.3,0-2.4-0.2-3.2-0.6v-2.6c1,0.6,2.1,0.9,3.1,0.9
			s1.8-0.3,2.4-0.8s0.9-1.3,0.9-2.2v-0.8l0,0c-0.7,1.1-1.7,1.7-3.1,1.7c-1.3,0-2.3-0.4-3-1.3s-1.1-2.1-1.1-3.6c0-1.7,0.4-3,1.3-4
			s1.9-1.5,3.3-1.5c1.2,0,2.1,0.5,2.7,1.4l0,0V107h3.1L349.5,115.9L349.5,115.9z M346.4,112.2v-0.8c0-0.6-0.2-1.2-0.6-1.6
			s-0.9-0.7-1.5-0.7c-0.7,0-1.2,0.3-1.6,0.8s-0.6,1.3-0.6,2.3c0,0.8,0.2,1.5,0.6,2s0.9,0.7,1.5,0.7s1.2-0.2,1.5-0.7
			S346.4,113,346.4,112.2z"/>
		<path class="st1" d="M366.2,117h-8.3v-14h3.2v11.4h5.2v2.6H366.2z"/>
		<path class="st1" d="M376.1,117h-2.9v-1.4l0,0c-0.7,1.1-1.7,1.7-3,1.7c-1,0-1.7-0.3-2.3-0.8s-0.8-1.3-0.8-2.2
			c0-1.9,1.1-3.1,3.4-3.4l2.7-0.4c0-1.1-0.6-1.6-1.8-1.6c-1.2,0-2.3,0.4-3.4,1.1v-2.3c0.4-0.2,1-0.4,1.8-0.6s1.4-0.3,2-0.3
			c2.9,0,4.3,1.4,4.3,4.3L376.1,117L376.1,117z M373.2,112.9v-0.7l-1.8,0.2c-1,0.1-1.5,0.6-1.5,1.4c0,0.4,0.1,0.6,0.4,0.9
			s0.6,0.3,1,0.3c0.6,0,1.1-0.2,1.4-0.6S373.2,113.5,373.2,112.9z"/>
		<path class="st1" d="M381.7,115.8L381.7,115.8v1.2h-3.1v-14.8h3.1v6.3l0,0c0.8-1.2,1.8-1.7,3.3-1.7c1.3,0,2.3,0.4,3,1.3
			s1,2.1,1,3.6c0,1.7-0.4,3-1.2,4s-1.9,1.5-3.3,1.5C383.2,117.2,382.3,116.8,381.7,115.8z M381.6,111.6v1c0,0.6,0.2,1.2,0.6,1.6
			s0.8,0.6,1.4,0.6c0.7,0,1.2-0.3,1.6-0.8s0.6-1.3,0.6-2.3c0-0.8-0.2-1.5-0.5-1.9s-0.9-0.7-1.5-0.7s-1.1,0.2-1.5,0.7
			S381.6,110.9,381.6,111.6z"/>
	</g>
</g>
</svg>
