<svg xmlns="http://www.w3.org/2000/svg" xmlns:xlink="http://www.w3.org/1999/xlink" width="960" height="563" viewBox="0 0 960 563">
  <defs>
    <clipPath id="clip-path">
      <rect id="Rectangle_25" data-name="Rectangle 25" width="960" height="200" transform="translate(960 1285)" fill="rgba(132, 130, 130, 0.26)"/>
    </clipPath>
    <clipPath id="clip-path-2">
      <rect width="960" height="855" fill="none"/>
    </clipPath>
  </defs>
  <g id="Group_118" data-name="Group 118" transform="translate(-960 -1285)">
    <g id="Mask_Group_16" data-name="Mask Group 16" clip-path="url(#clip-path)">
      <g id="Repeat_Grid_2" data-name="Repeat Grid 2" transform="translate(960 993)" clip-path="url(#clip-path-2)">
        <g transform="translate(0 154)">
          <g id="Group_9" data-name="Group 9" transform="translate(1375 -324) rotate(90)">
            <path id="Polygon_2" data-name="Polygon 2" d="M67,0l67,116H0Z" transform="translate(170 803)" fill="#522D80
"/>
            <path id="Polygon_3" data-name="Polygon 3" d="M67,0l67,116H0Z" transform="translate(370 919) rotate(180)" fill="#522D80"/>
            <path id="Polygon_4" data-name="Polygon 4" d="M67,0l67,116H0Z" transform="translate(302 803)" fill="#522D80
"/>
            <path id="Path_1" data-name="Path 1" d="M67,0l67,116H0Z" transform="translate(502 919) rotate(180)" fill="#522D80"/>
          </g>
          <g id="Group_9-2" data-name="Group 9" transform="translate(1375 -60) rotate(90)">
            <path id="Polygon_2-2" data-name="Polygon 2" d="M67,0l67,116H0Z" transform="translate(170 803)" fill="#522D80
"/>
            <path id="Polygon_3-2" data-name="Polygon 3" d="M67,0l67,116H0Z" transform="translate(370 919) rotate(180)" fill="#522D80"/>
            <path id="Polygon_4-2" data-name="Polygon 4" d="M67,0l67,116H0Z" transform="translate(302 803)" fill="#522D80
"/>
            <path id="Path_1-2" data-name="Path 1" d="M67,0l67,116H0Z" transform="translate(502 919) rotate(180)" fill="#522D80"/>
          </g>
          <g id="Group_9-3" data-name="Group 9" transform="translate(1375 204) rotate(90)">
            <path id="Polygon_2-3" data-name="Polygon 2" d="M67,0l67,116H0Z" transform="translate(170 803)" fill="#522D80
"/>
            <path id="Polygon_3-3" data-name="Polygon 3" d="M67,0l67,116H0Z" transform="translate(370 919) rotate(180)" fill="#522D80"/>
            <path id="Polygon_4-3" data-name="Polygon 4" d="M67,0l67,116H0Z" transform="translate(302 803)" fill="#522D80
"/>
            <path id="Path_1-3" data-name="Path 1" d="M67,0l67,116H0Z" transform="translate(502 919) rotate(180)" fill="#522D80"/>
          </g>
          <g id="Group_9-4" data-name="Group 9" transform="translate(1261 -324) rotate(90)">
            <path id="Polygon_2-4" data-name="Polygon 2" d="M67,0l67,116H0Z" transform="translate(170 803)" fill="#522D80
"/>
            <path id="Polygon_3-4" data-name="Polygon 3" d="M67,0l67,116H0Z" transform="translate(370 919) rotate(180)" fill="#522D80"/>
            <path id="Polygon_4-4" data-name="Polygon 4" d="M67,0l67,116H0Z" transform="translate(302 803)" fill="#522D80
"/>
            <path id="Path_1-4" data-name="Path 1" d="M67,0l67,116H0Z" transform="translate(502 919) rotate(180)" fill="#522D80"/>
          </g>
          <g id="Group_9-5" data-name="Group 9" transform="translate(1261 -60) rotate(90)">
            <path id="Polygon_2-5" data-name="Polygon 2" d="M67,0l67,116H0Z" transform="translate(170 803)" fill="#522D80
"/>
            <path id="Polygon_3-5" data-name="Polygon 3" d="M67,0l67,116H0Z" transform="translate(370 919) rotate(180)" fill="#522D80"/>
            <path id="Polygon_4-5" data-name="Polygon 4" d="M67,0l67,116H0Z" transform="translate(302 803)" fill="#522D80
"/>
            <path id="Path_1-5" data-name="Path 1" d="M67,0l67,116H0Z" transform="translate(502 919) rotate(180)" fill="#522D80"/>
          </g>
          <g id="Group_9-6" data-name="Group 9" transform="translate(1261 204) rotate(90)">
            <path id="Polygon_2-6" data-name="Polygon 2" d="M67,0l67,116H0Z" transform="translate(170 803)" fill="#522D80
"/>
            <path id="Polygon_3-6" data-name="Polygon 3" d="M67,0l67,116H0Z" transform="translate(370 919) rotate(180)" fill="#522D80"/>
            <path id="Polygon_4-6" data-name="Polygon 4" d="M67,0l67,116H0Z" transform="translate(302 803)" fill="#522D80
"/>
            <path id="Path_1-6" data-name="Path 1" d="M67,0l67,116H0Z" transform="translate(502 919) rotate(180)" fill="#522D80"/>
          </g>
          <g id="Group_9-7" data-name="Group 9" transform="translate(1147 -324) rotate(90)">
            <path id="Polygon_2-7" data-name="Polygon 2" d="M67,0l67,116H0Z" transform="translate(170 803)" fill="#522D80
"/>
            <path id="Polygon_3-7" data-name="Polygon 3" d="M67,0l67,116H0Z" transform="translate(370 919) rotate(180)" fill="#522D80"/>
            <path id="Polygon_4-7" data-name="Polygon 4" d="M67,0l67,116H0Z" transform="translate(302 803)" fill="#522D80
"/>
            <path id="Path_1-7" data-name="Path 1" d="M67,0l67,116H0Z" transform="translate(502 919) rotate(180)" fill="#522D80"/>
          </g>
          <g id="Group_9-8" data-name="Group 9" transform="translate(1147 -60) rotate(90)">
            <path id="Polygon_2-8" data-name="Polygon 2" d="M67,0l67,116H0Z" transform="translate(170 803)" fill="#522D80
"/>
            <path id="Polygon_3-8" data-name="Polygon 3" d="M67,0l67,116H0Z" transform="translate(370 919) rotate(180)" fill="#522D80"/>
            <path id="Polygon_4-8" data-name="Polygon 4" d="M67,0l67,116H0Z" transform="translate(302 803)" fill="#522D80
"/>
            <path id="Path_1-8" data-name="Path 1" d="M67,0l67,116H0Z" transform="translate(502 919) rotate(180)" fill="#522D80"/>
          </g>
          <g id="Group_9-9" data-name="Group 9" transform="translate(1147 204) rotate(90)">
            <path id="Polygon_2-9" data-name="Polygon 2" d="M67,0l67,116H0Z" transform="translate(170 803)" fill="#522D80
"/>
            <path id="Polygon_3-9" data-name="Polygon 3" d="M67,0l67,116H0Z" transform="translate(370 919) rotate(180)" fill="#522D80"/>
            <path id="Polygon_4-9" data-name="Polygon 4" d="M67,0l67,116H0Z" transform="translate(302 803)" fill="#522D80
"/>
            <path id="Path_1-9" data-name="Path 1" d="M67,0l67,116H0Z" transform="translate(502 919) rotate(180)" fill="#522D80"/>
          </g>
          <g id="Group_9-10" data-name="Group 9" transform="translate(1033 -324) rotate(90)">
            <path id="Polygon_2-10" data-name="Polygon 2" d="M67,0l67,116H0Z" transform="translate(170 803)" fill="#522D80
"/>
            <path id="Polygon_3-10" data-name="Polygon 3" d="M67,0l67,116H0Z" transform="translate(370 919) rotate(180)" fill="#522D80"/>
            <path id="Polygon_4-10" data-name="Polygon 4" d="M67,0l67,116H0Z" transform="translate(302 803)" fill="#522D80
"/>
            <path id="Path_1-10" data-name="Path 1" d="M67,0l67,116H0Z" transform="translate(502 919) rotate(180)" fill="#522D80"/>
          </g>
          <g id="Group_9-11" data-name="Group 9" transform="translate(1033 -60) rotate(90)">
            <path id="Polygon_2-11" data-name="Polygon 2" d="M67,0l67,116H0Z" transform="translate(170 803)" fill="#522D80
"/>
            <path id="Polygon_3-11" data-name="Polygon 3" d="M67,0l67,116H0Z" transform="translate(370 919) rotate(180)" fill="#522D80"/>
            <path id="Polygon_4-11" data-name="Polygon 4" d="M67,0l67,116H0Z" transform="translate(302 803)" fill="#522D80
"/>
            <path id="Path_1-11" data-name="Path 1" d="M67,0l67,116H0Z" transform="translate(502 919) rotate(180)" fill="#522D80"/>
          </g>
          <g id="Group_9-12" data-name="Group 9" transform="translate(1033 204) rotate(90)">
            <path id="Polygon_2-12" data-name="Polygon 2" d="M67,0l67,116H0Z" transform="translate(170 803)" fill="#522D80
"/>
            <path id="Polygon_3-12" data-name="Polygon 3" d="M67,0l67,116H0Z" transform="translate(370 919) rotate(180)" fill="#522D80"/>
            <path id="Polygon_4-12" data-name="Polygon 4" d="M67,0l67,116H0Z" transform="translate(302 803)" fill="#522D80
"/>
            <path id="Path_1-12" data-name="Path 1" d="M67,0l67,116H0Z" transform="translate(502 919) rotate(180)" fill="#522D80"/>
          </g>
          <g id="Group_9-13" data-name="Group 9" transform="translate(919 -324) rotate(90)">
            <path id="Polygon_2-13" data-name="Polygon 2" d="M67,0l67,116H0Z" transform="translate(170 803)" fill="#522D80
"/>
            <path id="Polygon_3-13" data-name="Polygon 3" d="M67,0l67,116H0Z" transform="translate(370 919) rotate(180)" fill="#522D80"/>
            <path id="Polygon_4-13" data-name="Polygon 4" d="M67,0l67,116H0Z" transform="translate(302 803)" fill="#522D80
"/>
            <path id="Path_1-13" data-name="Path 1" d="M67,0l67,116H0Z" transform="translate(502 919) rotate(180)" fill="#522D80"/>
          </g>
          <g id="Group_9-14" data-name="Group 9" transform="translate(919 -60) rotate(90)">
            <path id="Polygon_2-14" data-name="Polygon 2" d="M67,0l67,116H0Z" transform="translate(170 803)" fill="#522D80
"/>
            <path id="Polygon_3-14" data-name="Polygon 3" d="M67,0l67,116H0Z" transform="translate(370 919) rotate(180)" fill="#522D80"/>
            <path id="Polygon_4-14" data-name="Polygon 4" d="M67,0l67,116H0Z" transform="translate(302 803)" fill="#522D80
"/>
            <path id="Path_1-14" data-name="Path 1" d="M67,0l67,116H0Z" transform="translate(502 919) rotate(180)" fill="#522D80"/>
          </g>
          <g id="Group_9-15" data-name="Group 9" transform="translate(919 204) rotate(90)">
            <path id="Polygon_2-15" data-name="Polygon 2" d="M67,0l67,116H0Z" transform="translate(170 803)" fill="#522D80
"/>
            <path id="Polygon_3-15" data-name="Polygon 3" d="M67,0l67,116H0Z" transform="translate(370 919) rotate(180)" fill="#522D80"/>
            <path id="Polygon_4-15" data-name="Polygon 4" d="M67,0l67,116H0Z" transform="translate(302 803)" fill="#522D80
"/>
            <path id="Path_1-15" data-name="Path 1" d="M67,0l67,116H0Z" transform="translate(502 919) rotate(180)" fill="#522D80"/>
          </g>
          <g id="Group_9-16" data-name="Group 9" transform="translate(1033 468) rotate(90)">
            <path id="Polygon_2-16" data-name="Polygon 2" d="M67,0l67,116H0Z" transform="translate(170 803)" fill="#522D80
"/>
            <path id="Polygon_3-16" data-name="Polygon 3" d="M67,0l67,116H0Z" transform="translate(370 919) rotate(180)" fill="#522D80"/>
            <path id="Polygon_4-16" data-name="Polygon 4" d="M67,0l67,116H0Z" transform="translate(302 803)" fill="#522D80
"/>
            <path id="Path_1-16" data-name="Path 1" d="M67,0l67,116H0Z" transform="translate(502 919) rotate(180)" fill="#522D80"/>
          </g>
          <g id="Group_9-17" data-name="Group 9" transform="translate(1033 732) rotate(90)">
            <path id="Polygon_2-17" data-name="Polygon 2" d="M67,0l67,116H0Z" transform="translate(170 803)" fill="#522D80
"/>
            <path id="Polygon_3-17" data-name="Polygon 3" d="M67,0l67,116H0Z" transform="translate(370 919) rotate(180)" fill="#522D80"/>
            <path id="Polygon_4-17" data-name="Polygon 4" d="M67,0l67,116H0Z" transform="translate(302 803)" fill="#522D80
"/>
            <path id="Path_1-17" data-name="Path 1" d="M67,0l67,116H0Z" transform="translate(502 919) rotate(180)" fill="#522D80"/>
          </g>
          <g id="Group_9-18" data-name="Group 9" transform="translate(919 468) rotate(90)">
            <path id="Polygon_2-18" data-name="Polygon 2" d="M67,0l67,116H0Z" transform="translate(170 803)" fill="#522D80
"/>
            <path id="Polygon_3-18" data-name="Polygon 3" d="M67,0l67,116H0Z" transform="translate(370 919) rotate(180)" fill="#522D80"/>
            <path id="Polygon_4-18" data-name="Polygon 4" d="M67,0l67,116H0Z" transform="translate(302 803)" fill="#522D80
"/>
            <path id="Path_1-18" data-name="Path 1" d="M67,0l67,116H0Z" transform="translate(502 919) rotate(180)" fill="#522D80"/>
          </g>
          <g id="Group_9-19" data-name="Group 9" transform="translate(919 732) rotate(90)">
            <path id="Polygon_2-19" data-name="Polygon 2" d="M67,0l67,116H0Z" transform="translate(170 803)" fill="#522D80
"/>
            <path id="Polygon_3-19" data-name="Polygon 3" d="M67,0l67,116H0Z" transform="translate(370 919) rotate(180)" fill="#522D80"/>
            <path id="Polygon_4-19" data-name="Polygon 4" d="M67,0l67,116H0Z" transform="translate(302 803)" fill="#522D80
"/>
            <path id="Path_1-19" data-name="Path 1" d="M67,0l67,116H0Z" transform="translate(502 919) rotate(180)" fill="#522D80"/>
          </g>
          <g id="Group_9-20" data-name="Group 9" transform="translate(1375 468) rotate(90)">
            <path id="Polygon_2-20" data-name="Polygon 2" d="M67,0l67,116H0Z" transform="translate(170 803)" fill="#522D80
"/>
            <path id="Polygon_3-20" data-name="Polygon 3" d="M67,0l67,116H0Z" transform="translate(370 919) rotate(180)" fill="#522D80"/>
            <path id="Polygon_4-20" data-name="Polygon 4" d="M67,0l67,116H0Z" transform="translate(302 803)" fill="#522D80
"/>
            <path id="Path_1-20" data-name="Path 1" d="M67,0l67,116H0Z" transform="translate(502 919) rotate(180)" fill="#522D80"/>
          </g>
          <g id="Group_9-21" data-name="Group 9" transform="translate(1375 732) rotate(90)">
            <path id="Polygon_2-21" data-name="Polygon 2" d="M67,0l67,116H0Z" transform="translate(170 803)" fill="#522D80
"/>
            <path id="Polygon_3-21" data-name="Polygon 3" d="M67,0l67,116H0Z" transform="translate(370 919) rotate(180)" fill="#522D80"/>
            <path id="Polygon_4-21" data-name="Polygon 4" d="M67,0l67,116H0Z" transform="translate(302 803)" fill="#522D80
"/>
            <path id="Path_1-21" data-name="Path 1" d="M67,0l67,116H0Z" transform="translate(502 919) rotate(180)" fill="#522D80"/>
          </g>
          <g id="Group_9-22" data-name="Group 9" transform="translate(1261 468) rotate(90)">
            <path id="Polygon_2-22" data-name="Polygon 2" d="M67,0l67,116H0Z" transform="translate(170 803)" fill="#522D80
"/>
            <path id="Polygon_3-22" data-name="Polygon 3" d="M67,0l67,116H0Z" transform="translate(370 919) rotate(180)" fill="#522D80"/>
            <path id="Polygon_4-22" data-name="Polygon 4" d="M67,0l67,116H0Z" transform="translate(302 803)" fill="#522D80
"/>
            <path id="Path_1-22" data-name="Path 1" d="M67,0l67,116H0Z" transform="translate(502 919) rotate(180)" fill="#522D80"/>
          </g>
          <g id="Group_9-23" data-name="Group 9" transform="translate(1261 732) rotate(90)">
            <path id="Polygon_2-23" data-name="Polygon 2" d="M67,0l67,116H0Z" transform="translate(170 803)" fill="#522D80
"/>
            <path id="Polygon_3-23" data-name="Polygon 3" d="M67,0l67,116H0Z" transform="translate(370 919) rotate(180)" fill="#522D80"/>
            <path id="Polygon_4-23" data-name="Polygon 4" d="M67,0l67,116H0Z" transform="translate(302 803)" fill="#522D80
"/>
            <path id="Path_1-23" data-name="Path 1" d="M67,0l67,116H0Z" transform="translate(502 919) rotate(180)" fill="#522D80"/>
          </g>
          <g id="Group_9-24" data-name="Group 9" transform="translate(1147 468) rotate(90)">
            <path id="Polygon_2-24" data-name="Polygon 2" d="M67,0l67,116H0Z" transform="translate(170 803)" fill="#522D80
"/>
            <path id="Polygon_3-24" data-name="Polygon 3" d="M67,0l67,116H0Z" transform="translate(370 919) rotate(180)" fill="#522D80"/>
            <path id="Polygon_4-24" data-name="Polygon 4" d="M67,0l67,116H0Z" transform="translate(302 803)" fill="#522D80
"/>
            <path id="Path_1-24" data-name="Path 1" d="M67,0l67,116H0Z" transform="translate(502 919) rotate(180)" fill="#522D80"/>
          </g>
          <g id="Group_9-25" data-name="Group 9" transform="translate(1147 732) rotate(90)">
            <path id="Polygon_2-25" data-name="Polygon 2" d="M67,0l67,116H0Z" transform="translate(170 803)" fill="#522D80
"/>
            <path id="Polygon_3-25" data-name="Polygon 3" d="M67,0l67,116H0Z" transform="translate(370 919) rotate(180)" fill="#522D80"/>
            <path id="Polygon_4-25" data-name="Polygon 4" d="M67,0l67,116H0Z" transform="translate(302 803)" fill="#522D80
"/>
            <path id="Path_1-25" data-name="Path 1" d="M67,0l67,116H0Z" transform="translate(502 919) rotate(180)" fill="#522D80"/>
          </g>
        </g>
        <g transform="translate(572 154)">
          <g id="Group_9-26" data-name="Group 9" transform="translate(1375 -324) rotate(90)">
            <path id="Polygon_2-26" data-name="Polygon 2" d="M67,0l67,116H0Z" transform="translate(170 803)" fill="#522D80
"/>
            <path id="Polygon_3-26" data-name="Polygon 3" d="M67,0l67,116H0Z" transform="translate(370 919) rotate(180)" fill="#522D80"/>
            <path id="Polygon_4-26" data-name="Polygon 4" d="M67,0l67,116H0Z" transform="translate(302 803)" fill="#522D80
"/>
            <path id="Path_1-26" data-name="Path 1" d="M67,0l67,116H0Z" transform="translate(502 919) rotate(180)" fill="#522D80"/>
          </g>
          <g id="Group_9-27" data-name="Group 9" transform="translate(1375 -60) rotate(90)">
            <path id="Polygon_2-27" data-name="Polygon 2" d="M67,0l67,116H0Z" transform="translate(170 803)" fill="#522D80
"/>
            <path id="Polygon_3-27" data-name="Polygon 3" d="M67,0l67,116H0Z" transform="translate(370 919) rotate(180)" fill="#522D80"/>
            <path id="Polygon_4-27" data-name="Polygon 4" d="M67,0l67,116H0Z" transform="translate(302 803)" fill="#522D80
"/>
            <path id="Path_1-27" data-name="Path 1" d="M67,0l67,116H0Z" transform="translate(502 919) rotate(180)" fill="#522D80"/>
          </g>
          <g id="Group_9-28" data-name="Group 9" transform="translate(1375 204) rotate(90)">
            <path id="Polygon_2-28" data-name="Polygon 2" d="M67,0l67,116H0Z" transform="translate(170 803)" fill="#522D80
"/>
            <path id="Polygon_3-28" data-name="Polygon 3" d="M67,0l67,116H0Z" transform="translate(370 919) rotate(180)" fill="#522D80"/>
            <path id="Polygon_4-28" data-name="Polygon 4" d="M67,0l67,116H0Z" transform="translate(302 803)" fill="#522D80
"/>
            <path id="Path_1-28" data-name="Path 1" d="M67,0l67,116H0Z" transform="translate(502 919) rotate(180)" fill="#522D80"/>
          </g>
          <g id="Group_9-29" data-name="Group 9" transform="translate(1261 -324) rotate(90)">
            <path id="Polygon_2-29" data-name="Polygon 2" d="M67,0l67,116H0Z" transform="translate(170 803)" fill="#522D80
"/>
            <path id="Polygon_3-29" data-name="Polygon 3" d="M67,0l67,116H0Z" transform="translate(370 919) rotate(180)" fill="#522D80"/>
            <path id="Polygon_4-29" data-name="Polygon 4" d="M67,0l67,116H0Z" transform="translate(302 803)" fill="#522D80
"/>
            <path id="Path_1-29" data-name="Path 1" d="M67,0l67,116H0Z" transform="translate(502 919) rotate(180)" fill="#522D80"/>
          </g>
          <g id="Group_9-30" data-name="Group 9" transform="translate(1261 -60) rotate(90)">
            <path id="Polygon_2-30" data-name="Polygon 2" d="M67,0l67,116H0Z" transform="translate(170 803)" fill="#522D80
"/>
            <path id="Polygon_3-30" data-name="Polygon 3" d="M67,0l67,116H0Z" transform="translate(370 919) rotate(180)" fill="#522D80"/>
            <path id="Polygon_4-30" data-name="Polygon 4" d="M67,0l67,116H0Z" transform="translate(302 803)" fill="#522D80
"/>
            <path id="Path_1-30" data-name="Path 1" d="M67,0l67,116H0Z" transform="translate(502 919) rotate(180)" fill="#522D80"/>
          </g>
          <g id="Group_9-31" data-name="Group 9" transform="translate(1261 204) rotate(90)">
            <path id="Polygon_2-31" data-name="Polygon 2" d="M67,0l67,116H0Z" transform="translate(170 803)" fill="#522D80
"/>
            <path id="Polygon_3-31" data-name="Polygon 3" d="M67,0l67,116H0Z" transform="translate(370 919) rotate(180)" fill="#522D80"/>
            <path id="Polygon_4-31" data-name="Polygon 4" d="M67,0l67,116H0Z" transform="translate(302 803)" fill="#522D80
"/>
            <path id="Path_1-31" data-name="Path 1" d="M67,0l67,116H0Z" transform="translate(502 919) rotate(180)" fill="#522D80"/>
          </g>
          <g id="Group_9-32" data-name="Group 9" transform="translate(1147 -324) rotate(90)">
            <path id="Polygon_2-32" data-name="Polygon 2" d="M67,0l67,116H0Z" transform="translate(170 803)" fill="#522D80
"/>
            <path id="Polygon_3-32" data-name="Polygon 3" d="M67,0l67,116H0Z" transform="translate(370 919) rotate(180)" fill="#522D80"/>
            <path id="Polygon_4-32" data-name="Polygon 4" d="M67,0l67,116H0Z" transform="translate(302 803)" fill="#522D80
"/>
            <path id="Path_1-32" data-name="Path 1" d="M67,0l67,116H0Z" transform="translate(502 919) rotate(180)" fill="#522D80"/>
          </g>
          <g id="Group_9-33" data-name="Group 9" transform="translate(1147 -60) rotate(90)">
            <path id="Polygon_2-33" data-name="Polygon 2" d="M67,0l67,116H0Z" transform="translate(170 803)" fill="#522D80
"/>
            <path id="Polygon_3-33" data-name="Polygon 3" d="M67,0l67,116H0Z" transform="translate(370 919) rotate(180)" fill="#522D80"/>
            <path id="Polygon_4-33" data-name="Polygon 4" d="M67,0l67,116H0Z" transform="translate(302 803)" fill="#522D80
"/>
            <path id="Path_1-33" data-name="Path 1" d="M67,0l67,116H0Z" transform="translate(502 919) rotate(180)" fill="#522D80"/>
          </g>
          <g id="Group_9-34" data-name="Group 9" transform="translate(1147 204) rotate(90)">
            <path id="Polygon_2-34" data-name="Polygon 2" d="M67,0l67,116H0Z" transform="translate(170 803)" fill="#522D80
"/>
            <path id="Polygon_3-34" data-name="Polygon 3" d="M67,0l67,116H0Z" transform="translate(370 919) rotate(180)" fill="#522D80"/>
            <path id="Polygon_4-34" data-name="Polygon 4" d="M67,0l67,116H0Z" transform="translate(302 803)" fill="#522D80
"/>
            <path id="Path_1-34" data-name="Path 1" d="M67,0l67,116H0Z" transform="translate(502 919) rotate(180)" fill="#522D80"/>
          </g>
          <g id="Group_9-35" data-name="Group 9" transform="translate(1033 -324) rotate(90)">
            <path id="Polygon_2-35" data-name="Polygon 2" d="M67,0l67,116H0Z" transform="translate(170 803)" fill="#522D80
"/>
            <path id="Polygon_3-35" data-name="Polygon 3" d="M67,0l67,116H0Z" transform="translate(370 919) rotate(180)" fill="#522D80"/>
            <path id="Polygon_4-35" data-name="Polygon 4" d="M67,0l67,116H0Z" transform="translate(302 803)" fill="#522D80
"/>
            <path id="Path_1-35" data-name="Path 1" d="M67,0l67,116H0Z" transform="translate(502 919) rotate(180)" fill="#522D80"/>
          </g>
          <g id="Group_9-36" data-name="Group 9" transform="translate(1033 -60) rotate(90)">
            <path id="Polygon_2-36" data-name="Polygon 2" d="M67,0l67,116H0Z" transform="translate(170 803)" fill="#522D80
"/>
            <path id="Polygon_3-36" data-name="Polygon 3" d="M67,0l67,116H0Z" transform="translate(370 919) rotate(180)" fill="#522D80"/>
            <path id="Polygon_4-36" data-name="Polygon 4" d="M67,0l67,116H0Z" transform="translate(302 803)" fill="#522D80
"/>
            <path id="Path_1-36" data-name="Path 1" d="M67,0l67,116H0Z" transform="translate(502 919) rotate(180)" fill="#522D80"/>
          </g>
          <g id="Group_9-37" data-name="Group 9" transform="translate(1033 204) rotate(90)">
            <path id="Polygon_2-37" data-name="Polygon 2" d="M67,0l67,116H0Z" transform="translate(170 803)" fill="#522D80
"/>
            <path id="Polygon_3-37" data-name="Polygon 3" d="M67,0l67,116H0Z" transform="translate(370 919) rotate(180)" fill="#522D80"/>
            <path id="Polygon_4-37" data-name="Polygon 4" d="M67,0l67,116H0Z" transform="translate(302 803)" fill="#522D80
"/>
            <path id="Path_1-37" data-name="Path 1" d="M67,0l67,116H0Z" transform="translate(502 919) rotate(180)" fill="#522D80"/>
          </g>
          <g id="Group_9-38" data-name="Group 9" transform="translate(919 -324) rotate(90)">
            <path id="Polygon_2-38" data-name="Polygon 2" d="M67,0l67,116H0Z" transform="translate(170 803)" fill="#522D80
"/>
            <path id="Polygon_3-38" data-name="Polygon 3" d="M67,0l67,116H0Z" transform="translate(370 919) rotate(180)" fill="#522D80"/>
            <path id="Polygon_4-38" data-name="Polygon 4" d="M67,0l67,116H0Z" transform="translate(302 803)" fill="#522D80
"/>
            <path id="Path_1-38" data-name="Path 1" d="M67,0l67,116H0Z" transform="translate(502 919) rotate(180)" fill="#522D80"/>
          </g>
          <g id="Group_9-39" data-name="Group 9" transform="translate(919 -60) rotate(90)">
            <path id="Polygon_2-39" data-name="Polygon 2" d="M67,0l67,116H0Z" transform="translate(170 803)" fill="#522D80
"/>
            <path id="Polygon_3-39" data-name="Polygon 3" d="M67,0l67,116H0Z" transform="translate(370 919) rotate(180)" fill="#522D80"/>
            <path id="Polygon_4-39" data-name="Polygon 4" d="M67,0l67,116H0Z" transform="translate(302 803)" fill="#522D80
"/>
            <path id="Path_1-39" data-name="Path 1" d="M67,0l67,116H0Z" transform="translate(502 919) rotate(180)" fill="#522D80"/>
          </g>
          <g id="Group_9-40" data-name="Group 9" transform="translate(919 204) rotate(90)">
            <path id="Polygon_2-40" data-name="Polygon 2" d="M67,0l67,116H0Z" transform="translate(170 803)" fill="#522D80
"/>
            <path id="Polygon_3-40" data-name="Polygon 3" d="M67,0l67,116H0Z" transform="translate(370 919) rotate(180)" fill="#522D80"/>
            <path id="Polygon_4-40" data-name="Polygon 4" d="M67,0l67,116H0Z" transform="translate(302 803)" fill="#522D80
"/>
            <path id="Path_1-40" data-name="Path 1" d="M67,0l67,116H0Z" transform="translate(502 919) rotate(180)" fill="#522D80"/>
          </g>
          <g id="Group_9-41" data-name="Group 9" transform="translate(1033 468) rotate(90)">
            <path id="Polygon_2-41" data-name="Polygon 2" d="M67,0l67,116H0Z" transform="translate(170 803)" fill="#522D80
"/>
            <path id="Polygon_3-41" data-name="Polygon 3" d="M67,0l67,116H0Z" transform="translate(370 919) rotate(180)" fill="#522D80"/>
            <path id="Polygon_4-41" data-name="Polygon 4" d="M67,0l67,116H0Z" transform="translate(302 803)" fill="#522D80
"/>
            <path id="Path_1-41" data-name="Path 1" d="M67,0l67,116H0Z" transform="translate(502 919) rotate(180)" fill="#522D80"/>
          </g>
          <g id="Group_9-42" data-name="Group 9" transform="translate(1033 732) rotate(90)">
            <path id="Polygon_2-42" data-name="Polygon 2" d="M67,0l67,116H0Z" transform="translate(170 803)" fill="#522D80
"/>
            <path id="Polygon_3-42" data-name="Polygon 3" d="M67,0l67,116H0Z" transform="translate(370 919) rotate(180)" fill="#522D80"/>
            <path id="Polygon_4-42" data-name="Polygon 4" d="M67,0l67,116H0Z" transform="translate(302 803)" fill="#522D80
"/>
            <path id="Path_1-42" data-name="Path 1" d="M67,0l67,116H0Z" transform="translate(502 919) rotate(180)" fill="#522D80"/>
          </g>
          <g id="Group_9-43" data-name="Group 9" transform="translate(919 468) rotate(90)">
            <path id="Polygon_2-43" data-name="Polygon 2" d="M67,0l67,116H0Z" transform="translate(170 803)" fill="#522D80
"/>
            <path id="Polygon_3-43" data-name="Polygon 3" d="M67,0l67,116H0Z" transform="translate(370 919) rotate(180)" fill="#522D80"/>
            <path id="Polygon_4-43" data-name="Polygon 4" d="M67,0l67,116H0Z" transform="translate(302 803)" fill="#522D80
"/>
            <path id="Path_1-43" data-name="Path 1" d="M67,0l67,116H0Z" transform="translate(502 919) rotate(180)" fill="#522D80"/>
          </g>
          <g id="Group_9-44" data-name="Group 9" transform="translate(919 732) rotate(90)">
            <path id="Polygon_2-44" data-name="Polygon 2" d="M67,0l67,116H0Z" transform="translate(170 803)" fill="#522D80
"/>
            <path id="Polygon_3-44" data-name="Polygon 3" d="M67,0l67,116H0Z" transform="translate(370 919) rotate(180)" fill="#522D80"/>
            <path id="Polygon_4-44" data-name="Polygon 4" d="M67,0l67,116H0Z" transform="translate(302 803)" fill="#522D80
"/>
            <path id="Path_1-44" data-name="Path 1" d="M67,0l67,116H0Z" transform="translate(502 919) rotate(180)" fill="#522D80"/>
          </g>
          <g id="Group_9-45" data-name="Group 9" transform="translate(1375 468) rotate(90)">
            <path id="Polygon_2-45" data-name="Polygon 2" d="M67,0l67,116H0Z" transform="translate(170 803)" fill="#522D80
"/>
            <path id="Polygon_3-45" data-name="Polygon 3" d="M67,0l67,116H0Z" transform="translate(370 919) rotate(180)" fill="#522D80"/>
            <path id="Polygon_4-45" data-name="Polygon 4" d="M67,0l67,116H0Z" transform="translate(302 803)" fill="#522D80
"/>
            <path id="Path_1-45" data-name="Path 1" d="M67,0l67,116H0Z" transform="translate(502 919) rotate(180)" fill="#522D80"/>
          </g>
          <g id="Group_9-46" data-name="Group 9" transform="translate(1375 732) rotate(90)">
            <path id="Polygon_2-46" data-name="Polygon 2" d="M67,0l67,116H0Z" transform="translate(170 803)" fill="#522D80
"/>
            <path id="Polygon_3-46" data-name="Polygon 3" d="M67,0l67,116H0Z" transform="translate(370 919) rotate(180)" fill="#522D80"/>
            <path id="Polygon_4-46" data-name="Polygon 4" d="M67,0l67,116H0Z" transform="translate(302 803)" fill="#522D80
"/>
            <path id="Path_1-46" data-name="Path 1" d="M67,0l67,116H0Z" transform="translate(502 919) rotate(180)" fill="#522D80"/>
          </g>
          <g id="Group_9-47" data-name="Group 9" transform="translate(1261 468) rotate(90)">
            <path id="Polygon_2-47" data-name="Polygon 2" d="M67,0l67,116H0Z" transform="translate(170 803)" fill="#522D80
"/>
            <path id="Polygon_3-47" data-name="Polygon 3" d="M67,0l67,116H0Z" transform="translate(370 919) rotate(180)" fill="#522D80"/>
            <path id="Polygon_4-47" data-name="Polygon 4" d="M67,0l67,116H0Z" transform="translate(302 803)" fill="#522D80
"/>
            <path id="Path_1-47" data-name="Path 1" d="M67,0l67,116H0Z" transform="translate(502 919) rotate(180)" fill="#522D80"/>
          </g>
          <g id="Group_9-48" data-name="Group 9" transform="translate(1261 732) rotate(90)">
            <path id="Polygon_2-48" data-name="Polygon 2" d="M67,0l67,116H0Z" transform="translate(170 803)" fill="#522D80
"/>
            <path id="Polygon_3-48" data-name="Polygon 3" d="M67,0l67,116H0Z" transform="translate(370 919) rotate(180)" fill="#522D80"/>
            <path id="Polygon_4-48" data-name="Polygon 4" d="M67,0l67,116H0Z" transform="translate(302 803)" fill="#522D80
"/>
            <path id="Path_1-48" data-name="Path 1" d="M67,0l67,116H0Z" transform="translate(502 919) rotate(180)" fill="#522D80"/>
          </g>
          <g id="Group_9-49" data-name="Group 9" transform="translate(1147 468) rotate(90)">
            <path id="Polygon_2-49" data-name="Polygon 2" d="M67,0l67,116H0Z" transform="translate(170 803)" fill="#522D80
"/>
            <path id="Polygon_3-49" data-name="Polygon 3" d="M67,0l67,116H0Z" transform="translate(370 919) rotate(180)" fill="#522D80"/>
            <path id="Polygon_4-49" data-name="Polygon 4" d="M67,0l67,116H0Z" transform="translate(302 803)" fill="#522D80
"/>
            <path id="Path_1-49" data-name="Path 1" d="M67,0l67,116H0Z" transform="translate(502 919) rotate(180)" fill="#522D80"/>
          </g>
          <g id="Group_9-50" data-name="Group 9" transform="translate(1147 732) rotate(90)">
            <path id="Polygon_2-50" data-name="Polygon 2" d="M67,0l67,116H0Z" transform="translate(170 803)" fill="#522D80
"/>
            <path id="Polygon_3-50" data-name="Polygon 3" d="M67,0l67,116H0Z" transform="translate(370 919) rotate(180)" fill="#522D80"/>
            <path id="Polygon_4-50" data-name="Polygon 4" d="M67,0l67,116H0Z" transform="translate(302 803)" fill="#522D80
"/>
            <path id="Path_1-50" data-name="Path 1" d="M67,0l67,116H0Z" transform="translate(502 919) rotate(180)" fill="#522D80"/>
          </g>
        </g>
      </g>
    </g>
    <rect id="Rectangle_14" data-name="Rectangle 14" width="960" height="200" transform="translate(960 1285)" fill="rgba(132, 130, 130, 0.26)"/>
  </g>
</svg>
